<?xml version="1.0" encoding="UTF-8"?><!DOCTYPE svg PUBLIC "-//W3C//DTD SVG 1.1//EN" "http://www.w3.org/Graphics/SVG/1.1/DTD/svg11.dtd">
<svg xmlns="http://www.w3.org/2000/svg">
    <symbol id="icon_cart" viewBox="0 0 260.3 260.3">
        <path d="m258.7 57.5c-1.4-1.8-3.6-2.9-5.9-2.9h-190.8l-8.3-32.1c-.9-3.3-3.8-5.6-7.3-5.6h-38.9c-4.1 0-7.5 3.4-7.5 7.5s3.4 7.5 7.5 7.5h33.1l8.3 32.1c0 0 0 0 0 0l29.4 113c.9 3.3 3.8 5.6 7.3 5.6h137.8c3.4 0 6.4-2.3 7.3-5.6l29.4-113c.5-2.3 0-4.7-1.4-6.5m-140.8 110h-26.5l-5.9-22.7h32.4v22.7m0-37.6h-36.3l-5.9-22.7h42.2c0 0 0 22.7 0 22.7m0-37.7h-46.1l-5.9-22.7h52v22.7m58.2 75.3h-43.2v-22.7h43.2v22.7m0-37.6h-43.2v-22.7h43.2v22.7m0-37.7h-43.2v-22.7h43.2v22.7m41.5 75.3h-26.5v-22.7h32.4l-5.9 22.7m9.8-37.6h-36.3v-22.7h42.2l-5.9 22.7m9.8-37.7h-46.1v-22.7h52l-5.9 22.7" fill="#ffd54f"/>
        <g fill="#9d9d9d">
            <path d="m105.5 188.6c-15.1 0-27.4 12.3-27.4 27.4 0 15.1 12.3 27.4 27.4 27.4 15.1 0 27.4-12.3 27.4-27.4 0-15.1-12.3-27.4-27.4-27.4m0 39.8c-6.8 0-12.4-5.6-12.4-12.4 0-6.8 5.6-12.4 12.4-12.4 6.8 0 12.4 5.6 12.4 12.4 0 6.9-5.6 12.4-12.4 12.4"/>
            <path d="m203.5 188.6c-15.1 0-27.4 12.3-27.4 27.4 0 15.1 12.3 27.4 27.4 27.4 15.1 0 27.4-12.3 27.4-27.4 0-15.1-12.3-27.4-27.4-27.4m0 39.8c-6.8 0-12.4-5.6-12.4-12.4 0-6.8 5.6-12.4 12.4-12.4 6.8 0 12.4 5.6 12.4 12.4 0 6.9-5.6 12.4-12.4 12.4"/>
        </g>
    </symbol>
    <symbol id="icon_check" viewBox="0 0 129 129">
        <path d="m40.4,121.3c-0.8,0.8-1.8,1.2-2.9,1.2s-2.1-0.4-2.9-1.2c-1.6-1.6-1.6-4.2 0-5.8l51-51-51-51c-1.6-1.6-1.6-4.2 0-5.8 1.6-1.6 4.2-1.6 5.8,0l53.9,53.9c1.6,1.6 1.6,4.2 0,5.8l-53.9,53.9z"/>
    </symbol>
    <symbol id="icon_home" viewBox="0 0 221.053 221.053">
        <path fill="#d1d7de" d="m218.28 103.78l-99.89-96.28c-2.098-2.02-4.889-3.136-7.856-3.136-2.969 0-5.76 1.113-7.857 3.136l-99.9 96.28c-3.346 3.224-2.955 5.996-2.425 7.312.531 1.315 2.115 3.605 6.761 3.605h11.248v85.57c0 8.906 7.676 16.43 16.368 16.43h50.632v-58h49v58h51.965c8.72 0 16.03-7.678 16.03-16.43v-85.57h11.581c4.646 0 6.229-2.29 6.761-3.605.53-1.316.922-4.087-2.424-7.312"/>
    </symbol>
    <symbol id="icon_menu-list" viewBox="0 0 100 100">
        <path d="M-0.2,83.3H100V72.2H-0.2V83.3z M-0.2,55.5H100V44.3H-0.2V55.5z M-0.2,16.5v11.1H100V16.5H-0.2z"/>
    </symbol>
    <symbol id="icon_menu-palett" viewBox="0 0 290 290">
        <path d="m0 220h70v70h-70z"/>
        <path d="m0 110h70v70h-70z"/>
        <path d="m0 0h70v70h-70z"/>
        <path d="m110 220h70v70h-70z"/>
        <path d="m110 110h70v70h-70z"/>
        <path d="m110 0h70v70h-70z"/>
        <path d="m220 220h70v70h-70z"/>
        <path d="m220 110h70v70h-70z"/>
        <path d="m220 0h70v70h-70z"/>
    </symbol>
    <symbol id="icon_more" viewBox="0 0 612 612">
        <circle cx="69.55" cy="306" r="69.55"/>
        <circle cx="306" cy="306" r="69.55"/>
        <circle cx="542.46" cy="306" r="69.55"/>
    </symbol>
</svg>