<?xml version="1.0" encoding="UTF-8"?><!DOCTYPE svg PUBLIC "-//W3C//DTD SVG 1.1//EN" "http://www.w3.org/Graphics/SVG/1.1/DTD/svg11.dtd"><svg xmlns="http://www.w3.org/2000/svg"><symbol id="images"/><symbol id="book" viewBox="0 0 21 37"><g fill="none" stroke="#fff"><g stroke-linejoin="round" stroke-linecap="round"><path d="M3 9l12-7 6 3v21L3 36z"/><path d="M15 2l6 3-6 3V3zM18 10L6 17M17 14L5 21M17 17L5 24M17 21L5 28M3 36l-2-1V7l12-6 1 1"/></g><path d="M1 7l2 2"/></g></symbol><symbol id="search" viewBox="0 0 254 254"><path d="M110 188c22 0 41-9 56-23 14-14 23-34 23-56s-9-41-23-56c-14-14-34-23-56-23s-41 9-56 23c-14 14-23 34-23 56s9 41 23 56c14 14 34 23 56 23m139 34c7 7 7 19 0 26s-19 7-26 0l-49-49c-18 13-40 20-64 20-30 0-58-12-78-32S0 140 0 109c0-30 12-58 32-78S79-1 110-1c30 0 58 12 78 32s32 47 32 78c0 24-8 46-20 64l49 49" fill="#2644bc" fill-rule="nonzero"/></symbol></svg>