<svg xmlns="http://www.w3.org/2000/svg" width="60" height="60" viewBox="0 0 1693 1693" shape-rendering="geometricPrecision" image-rendering="optimizeQuality" fill-rule="evenodd" clip-rule="evenodd"><path d="m792 45h122l60 87c91 14 176 45 252 89l101-26 95 83-11 95c67 78 117 170 144 270l139 69-1 159-126 60c-10 56-27 110-50 161l22 189-124 125-155-17c-36 23-74 43-114 60l-126 195-282 2-129-180c-30-10-59-23-86-36l-187 21-132-132 19-171c-33-58-58-120-73-187l-151-71v-152l150-70c24-109 75-208 146-292l-9-101 93-78 95 27c77-46 163-78 256-94l61-88zm64 168c348 0 630 270 630 603 0 333-282 603-630 603-348 0-630-270-630-603 0-333 282-603 630-603" fill="#56698f"/><path d="m862 277c309 0 559 241 559 539 0 298-250 539-559 539-309 0-559-241-559-539 0-298 250-539 559-539m-6 58c275 0 497 214 497 479 0 265-223 479-497 479-275 0-497-214-497-479 0-265 223-479 497-479" fill="#b2b3b3"/></svg>