<svg xmlns="http://www.w3.org/2000/svg" width="264.52" height="193.58" viewBox="0 0 7465 5463" xmlns:xlink="http://www.w3.org/1999/xlink" shape-rendering="geometricPrecision" image-rendering="optimizeQuality" fill-rule="evenodd" clip-rule="evenodd"><defs><linearGradient id="0" gradientUnits="userSpaceOnUse" x1="7052.55" y1="4741.73" x2="1211.34" y2="880.59"><stop stop-color="#d1d7df"/><stop offset="1" stop-color="#a2aebf"/></linearGradient><linearGradient id="1" gradientUnits="userSpaceOnUse" xlink:href="#0" x1="5231.41" y1="5028.99" x2="4336.92" y2="4437.71"/><linearGradient id="2" gradientUnits="userSpaceOnUse" x1="365.13" y1="4886.47" x2="1464.1" y2="3528.91"><stop stop-color="#e1e5ea"/><stop offset="1" stop-color="#d1d7df"/></linearGradient></defs><path fill="#f0f3f5" d="M6152 0 515 3254 1314 3715 6950 461z"/><path fill="url(#2)" d="m1314 3715l-799-461v1446l799 461z"/><path fill="url(#0)" d="m1314 3715v1446l5636-3254v-1446z"/><g fill="none" stroke="#7e8ca1" stroke-width="8.47"><path d="m1534 5458l2398-1385m1133-654l2398-1384"/><path d="m1827 5458l-513-297"/><path d="m1094 5460l-350-202m-509-294l-222-130"/><path d="m2 4997l513-297"/><path d="m801 5458l513-297"/><path d="m2 3550l513-296"/><path d="m7463 2204l-513-297"/><path d="m149 3288v264m0 1265v265"/></g><g fill-rule="nonzero"><path d="m184 4758c2 0 3 1 4 2 1 1 2 3 2 4 0 2-1 3-2 4-1 1-3 2-4 2h-69c-2 0-3-1-4-2-1-1-2-3-2-4 0-2 1-3 2-4 1-1 3-2 4-2h28v-33h-28c-2 0-3-1-4-2-1-1-2-3-2-4 0-2 1-3 2-4 1-1 3-2 4-2h69c2 0 3 1 4 2 1 1 2 3 2 4 0 2-1 3-2 4-1 1-3 2-4 2h-31v33h31m-5-94c0-3 0-6-1-9-1-2-2-5-3-8 0 0 0-1 0-1 0 0 0-1 0-1 0-2 1-3 2-4 1-1 2-2 4-2 2 0 3 1 5 3 1 2 2 4 3 7 1 3 1 5 2 8 0 3 1 5 1 8 0 4-1 8-2 12-1 4-3 6-6 9-2 2-5 4-8 5-3 1-7 2-10 2h-29c-4 0-7-1-11-2-3-1-6-3-8-6-2-2-4-5-6-9-1-4-2-8-2-12 0-9 2-15 7-20 5-4 11-6 19-6 7 0 13 2 17 6 4 4 6 11 6 20 0 2 0 5 0 8 0 3-1 6-1 8h9c4 0 8-1 11-4 3-3 4-7 4-13zm-46-13c-5 0-9 1-11 4-2 2-3 6-3 11 0 5 1 9 4 12 3 3 6 4 10 4h12c0-3 1-6 1-9 0-3 0-6 0-7 0-3 0-5-1-7-1-2-2-3-3-4-1-1-3-2-4-2-2 0-3 0-5 0zm-20-73c-10 0-18-2-24-7-6-5-9-13-10-24 0-1 0-2 0-3 0-1 0-2 0-3 0-1-1-2-1-4-1-1-1-4-3-6 0 0 0-1 0-1 0 0 0-1 0-1 0-2 1-3 2-4 1-1 2-2 4-2 2 0 4 1 5 3 1 2 2 4 3 6 1 3 1 5 2 8 0 3 1 5 1 7 0 2 1 4 1 6 0 2 1 4 3 6 1 2 4 4 7 5 3 1 7 2 12 2h8c-3-2-5-5-6-8-2-3-2-7-2-12 0-4 1-8 2-11 1-3 3-6 6-9 3-2 5-4 9-5 3-1 7-2 11-2h22c4 0 8 1 11 2 3 1 6 3 9 6 3 2 5 6 6 9 1 4 2 8 2 13 0 5-1 9-2 13-1 4-3 7-6 9-3 2-5 4-9 6-3 1-7 2-11 2h-48zm65-29c0-6-1-10-4-13-3-3-7-4-12-4h-22c-5 0-9 1-12 4-3 3-4 7-4 12 0 6 1 10 4 13 3 3 7 5 12 5h23c5 0 9-1 12-4 3-3 4-7 4-13zm11-73c0 5-1 9-2 13-1 4-3 7-6 9-3 2-5 4-9 6-3 1-7 2-11 2h-26c-4 0-8-1-11-2-3-1-6-3-9-6-3-2-5-6-6-9-1-4-2-8-2-13 0-5 1-9 2-13 1-4 3-7 6-9 3-2 5-4 9-6 3-1 7-2 11-2h26c4 0 8 1 11 2 3 1 6 3 9 6 3 2 5 6 6 9 1 4 2 8 2 13m-11 0c0-6-1-10-4-13-3-3-7-4-12-4h-26c-5 0-9 1-12 4-3 3-4 7-4 13 0 6 1 10 4 13 3 3 7 4 12 4h26c5 0 9-1 12-4 3-3 4-7 4-13m5-107c2 0 3 1 4 2 1 1 2 3 2 4 0 2-1 3-2 4-1 1-3 2-4 2h-64v25l43 3c8 1 14 2 19 5 5 3 7 7 7 14 0 1 0 2 0 4 0 1 0 2-1 3 0 1-1 2-2 2-1 1-2 1-3 1-2 0-4-1-5-2-1-1-1-3-1-4 0-1 0-1 0-1v-1c0-3-1-5-3-6-2-1-6-2-11-3l-49-4c-2 0-4-1-5-2-1-1-1-3-1-4v-36c0-2 1-3 2-4 1-1 3-2 4-2h69zm-5-48c0-3 0-6-1-9-1-2-2-5-3-8 0 0 0-1 0-1 0 0 0-1 0-1 0-2 1-3 2-4 1-1 2-2 4-2 2 0 3 1 5 3 1 2 2 4 3 7 1 3 1 5 2 8 0 3 1 5 1 8 0 4-1 8-2 12-1 4-3 6-6 9-2 2-5 4-8 5-3 1-7 2-10 2h-29c-4 0-7-1-11-2-3-1-6-3-8-6-2-2-4-5-6-9-1-4-2-8-2-12 0-9 2-15 7-20 5-4 11-6 19-6 7 0 13 2 17 6 4 4 6 11 6 20 0 2 0 5 0 8 0 3-1 6-1 8h9c4 0 8-1 11-4 3-3 4-7 4-13zm-46-13c-5 0-9 1-11 4-2 2-3 6-3 11 0 5 1 9 4 12 3 3 6 4 10 4h12c0-3 1-6 1-9 0-3 0-6 0-7 0-3 0-5-1-7-1-2-2-3-3-4-1-1-3-2-4-2-2 0-3 0-5 0zm46-55c0-3 0-6-1-9-1-2-2-5-3-8 0 0 0-1 0-1 0 0 0-1 0-1 0-2 1-3 2-4 1-1 2-2 4-2 2 0 3 1 5 3 1 2 2 4 3 7 1 3 1 5 2 8 0 3 1 5 1 8 0 4-1 8-2 12-1 4-3 6-6 9-2 2-5 4-8 5-3 1-7 2-10 2h-29c-4 0-7-1-11-2-3-1-6-3-8-6-2-2-4-5-6-9-1-4-2-8-2-12 0-9 2-15 7-20 5-4 11-6 19-6 7 0 13 2 17 6 4 4 6 11 6 20 0 2 0 5 0 8 0 3-1 6-1 8h9c4 0 8-1 11-4 3-3 4-7 4-13zm-46-13c-5 0-9 1-11 4-2 2-3 6-3 11 0 5 1 9 4 12 3 3 6 4 10 4h12c0-3 1-6 1-9 0-3 0-6 0-7 0-3 0-5-1-7-1-2-2-3-3-4-1-1-3-2-4-2-2 0-3 0-5 0zm51-129c2 0 3 1 4 2 1 1 2 3 2 4 0 2-1 3-2 4-1 1-3 2-4 2h-19v39c0 2-1 3-2 5-1 1-3 2-5 2 0 0-1 0-2 0-1 0-2-1-3-1l-76-30c-1-1-2-1-3-2-1-1-1-2-1-3 0-1 1-3 2-4 1-1 3-2 4-2 0 0 1 0 1 0 0 0 1 0 1 0l70 28v-31h-31c-2 0-3-1-4-2-1-1-2-3-2-4 0-2 1-3 2-4 1-1 3-2 4-2h31v-7c0-2 1-3 2-4 1-1 3-2 4-2 2 0 3 1 4 2 1 1 2 2 2 4v7h19zm-8-113c0 3-1 5-4 6l-37 20h49c2 0 3 1 4 2 1 1 2 3 2 4 0 2-1 3-2 4-1 1-3 2-4 2h-69c-2 0-3-1-5-2-1-1-2-3-2-5 0-1 0-3 1-4 1-1 2-2 3-3l47-26-47-26c-1-1-2-2-3-3-1-1-1-2-1-4 0-2 1-3 2-5 1-1 3-2 5-2h69c2 0 3 1 4 2 1 1 2 3 2 4 0 2-1 3-2 4-1 1-3 2-4 2h-49l37 20c3 1 4 3 4 6zm3-87c0-3 0-6-1-9-1-2-2-5-3-8 0 0 0-1 0-1 0 0 0-1 0-1 0-2 1-3 2-4 1-1 2-2 4-2 2 0 3 1 5 3 1 2 2 4 3 7 1 3 1 5 2 8 0 3 1 5 1 8 0 4-1 8-2 12-1 4-3 6-6 9-2 2-5 4-8 5-3 1-7 2-10 2h-29c-4 0-7-1-11-2-3-1-6-3-8-6-2-2-4-5-6-9-1-4-2-8-2-12 0-9 2-15 7-20 5-4 11-6 19-6 7 0 13 2 17 6 4 4 6 11 6 20 0 2 0 5 0 8 0 3-1 6-1 8h9c4 0 8-1 11-4 3-3 4-7 4-13zm-46-13c-5 0-9 1-11 4-2 2-3 6-3 11 0 5 1 9 4 12 3 3 6 4 10 4h12c0-3 1-6 1-9 0-3 0-6 0-7 0-3 0-5-1-7-1-2-2-3-3-4-1-1-3-2-4-2-2 0-3 0-5 0zm50-57c2 0 3 1 4 2 1 1 2 3 2 4 0 2-1 3-2 4-1 1-3 2-4 2h-63v16c0 2-1 3-2 4-1 1-3 2-4 2-2 0-3-1-4-2-1-1-2-2-2-4v-45c0-2 1-3 2-4 1-1 2-2 4-2 2 0 3 1 4 2 1 1 2 2 2 4v16h63zm6-68c0 3 0 6-1 9-1 3-1 6-2 9h30c2 0 3 1 4 2 1 1 2 3 2 5 0 2-1 4-2 5-1 1-3 2-4 2h-86c-3 0-5 0-6 1-2 0-3 1-5 2-1 0-1 1-1 1 0 0-1 0-2 0-2 0-3-1-4-2-1-1-1-2-1-4 0-1 0-2 1-3 1-1 2-2 3-3-2-4-4-7-5-11-1-4-2-8-2-12 0-8 3-15 8-19 6-4 13-6 22-6h20c5 0 9 0 13 1 4 1 7 2 10 4 3 2 5 5 7 8 2 3 2 8 2 13zm-14 17c1-3 2-5 3-8 1-3 1-6 1-8 0-6-2-10-5-12-3-2-9-3-16-3h-20c-13 0-19 5-19 15 0 3 0 6 1 9 1 3 2 6 4 9 3-1 5-1 6-1h45zm14-87c0 5-1 9-2 13-1 4-3 7-6 9-3 2-5 4-9 6-3 1-7 2-11 2h-26c-4 0-8-1-11-2-3-1-6-3-9-6-3-2-5-6-6-9-1-4-2-8-2-13 0-5 1-9 2-13 1-4 3-7 6-9 3-2 5-4 9-6 3-1 7-2 11-2h26c4 0 8 1 11 2 3 1 6 3 9 6 3 2 5 6 6 9 1 4 2 8 2 13m-11 0c0-6-1-10-4-13-3-3-7-4-12-4h-26c-5 0-9 1-12 4-3 3-4 7-4 13 0 6 1 10 4 13 3 3 7 4 12 4h26c5 0 9-1 12-4 3-3 4-7 4-13m-47-102c4 0 7 1 10 3 3 2 5 5 6 8 2-4 4-8 7-10 3-2 7-3 11-3 7 0 12 2 16 6 4 4 6 11 6 20v23c0 2-1 3-2 4-1 1-3 2-4 2h-67c-2 0-3-1-4-2-1-1-2-3-2-4v-21c0-4 1-8 2-12 1-3 3-6 5-8 2-2 4-4 7-5 3-1 6-2 9-2zm35 11c-1 0-3 0-4 1-1 0-3 1-4 2-1 1-2 3-3 5-1 2-1 5-1 8v15h25v-16c0-5-1-8-3-11-2-2-5-4-9-4zm-23 31v-15c0-3 0-5-1-7-1-2-1-3-3-4-1-1-2-2-4-2-1 0-3-1-4-1-4 0-7 1-9 4-2 2-3 6-3 11v15h23z"/><path d="m2308 4010c0 6-2 12-5 18-4 6-8 11-13 14-5 3-9 3-13 1-4-2-6-6-6-12v-151l-126 73v151c0 6-2 12-5 18-4 6-8 11-13 14-5 3-10 3-13 1-4-2-5-6-5-12v-343c0-6 2-12 5-18 4-6 8-11 13-14 5-3 10-3 13-1 4 2 5 6 5 12v151l126-73v-151c0-6 2-12 6-18 4-6 8-11 13-14 5-3 9-3 13-1 4 2 6 6 6 12v343zm237-142c0 6-2 12-5 18-4 6-8 11-13 14l-122 70c-8 4-14 7-20 6-6 0-9-5-9-15v-325c0-6 2-13 6-21 4-8 9-13 15-17l125-72c5-3 10-4 13-1 4 2 5 6 5 12 0 6-2 12-5 18-4 6-8 10-13 13l-110 63v125l101-58c5-3 9-3 12-1 4 2 6 6 6 12 0 6-2 12-5 18-3 6-8 10-13 13l-101 58v126l114-66c5-3 9-3 13-2 4 2 6 5 6 11zm86-44c0 6-2 12-5 18-4 6-8 11-13 14-5 3-10 3-13 1-4-2-5-6-5-12v-335c0-6 2-13 6-20 4-7 9-13 15-16l125-72c5-3 9-3 13-1 3 2 5 6 5 12 0 6-2 12-5 18-3 6-8 10-13 13l-109 63v318zm176-96c-2 6-4 11-7 16-3 5-7 8-10 10-5 3-10 4-14 2-4-2-6-6-6-12 0-1 0-3 0-4 0-2 0-3 1-4l90-380c2-9 5-18 9-25 4-7 9-13 15-17 7-4 12-4 16-1 3 3 6 8 9 15l90 276c0 1 1 2 1 3 0 2 0 3 0 4 0 6-2 13-6 19-4 6-8 11-14 14-3 2-7 3-11 2-4-1-6-3-7-7l-20-63-117 67-19 85m30-133l95-55-47-153-47 208zm245-349v107l53-31c32-18 57-23 76-15 19 8 28 31 28 67 0 15-2 30-6 46-4 16-10 32-18 47-8 15-19 30-32 44-13 14-29 27-48 38l-68 39c-6 4-11 4-16 2-4-2-6-7-6-14v-326c0-6 2-13 6-20 4-7 9-13 15-16l135-78c5-3 10-3 13-1 3 2 5 6 5 12 0 6-2 12-5 18-3 6-8 10-13 13l-118 68zm53 262c14-8 25-16 33-26 9-9 16-19 21-28 5-10 8-19 10-29 2-10 3-19 3-28 0-48-22-58-67-33l-53 31v144l53-31m167-65c-2 6-4 11-7 16-3 5-7 8-10 10-5 3-10 4-14 2-4-2-6-6-6-12 0-1 0-3 0-4 0-2 0-3 1-4l90-380c2-9 5-18 9-25 4-7 9-13 15-17 7-4 12-4 16-1 3 3 6 8 9 15l90 276c0 1 1 2 1 3 0 2 0 3 0 4 0 6-2 13-6 19-4 6-8 11-14 14-3 2-7 3-11 2-4-1-6-3-7-7l-20-63-117 67-19 85m30-133l95-55-47-153-47 208zm245-154v121c0 6-2 12-5 19-4 6-8 11-13 14-5 3-9 3-13 1-4-2-6-6-6-13v-333c0-7 2-14 6-22 4-7 10-13 16-16l68-39c19-11 35-17 48-18 13-1 24 2 32 8 8 6 14 16 18 28 4 12 6 26 6 42 0 38-9 72-28 103-19 31-44 56-76 74l-53 31m0-42l53-31c22-13 39-29 50-47 11-19 17-41 17-68 0-10-1-18-3-27-2-8-5-14-10-19-5-4-12-6-21-6-9 1-20 5-33 13l-53 31v154m228 54c-6 4-11 4-15 2-4-3-6-7-6-13v-341c0-6 2-12 5-18 3-6 8-11 13-14 5-3 10-3 13-1 4 2 6 6 6 12v271l128-354c2-5 5-10 8-14 4-4 7-8 11-10 6-3 11-4 14-2 4 2 6 7 6 14v341c0 6-2 12-5 18-3 6-8 11-13 14-5 3-10 3-13 1-4-2-6-6-6-12v-271l-128 355c-2 5-5 10-8 14-4 4-7 7-11 9zm310-518l-63 36c-5 3-10 4-13 1-4-2-5-6-5-12 0-5 2-10 5-17 4-7 8-11 13-14l162-94c5-3 9-3 13-2 4 2 6 6 6 12 0 6-2 12-6 18-4 6-8 11-13 14l-63 36v318c0 6-2 12-5 18-4 6-8 11-13 14-5 3-10 3-13 1-4-2-5-6-5-12v-318zm363 108c0 6-2 12-5 18-4 6-8 11-13 14-5 3-9 3-13 1-4-2-6-6-6-12v-151l-126 73v151c0 6-2 12-5 18-4 6-8 11-13 14-5 3-10 3-13 1-4-2-5-6-5-12v-343c0-6 2-12 5-18 4-6 8-11 13-14 5-3 10-3 13-1 4 2 5 6 5 12v151l126-73v-151c0-6 2-12 6-18 4-6 8-11 13-14 5-3 9-3 13-1 4 2 6 6 6 12v343zm158-312c32-18 57-23 76-13 19 9 28 33 28 71 0 16-2 32-6 48-4 17-10 33-18 49-8 16-19 31-32 45-13 14-29 27-48 38l-68 39c-6 4-11 4-16 2-4-2-6-7-6-14v-333c0-6 2-12 6-19 4-7 8-11 13-14 5-3 10-3 13-1 4 2 5 7 5 13v121l53-31zm-53 226l53-31c14-8 25-16 33-26 9-9 16-19 21-30 5-10 8-21 10-31 2-10 3-20 3-30 0-26-6-42-17-48-11-6-28-3-50 10l-53 31v154zm193-86c0 6 2 10 5 12 4 2 8 2 13-1 5-3 10-8 13-14 4-6 5-12 5-18v-343c0-6-2-10-5-12-4-2-8-2-13 1-5 3-10 8-13 14-4 6-5 12-5 18v343m125-51c-6 4-11 4-15 2-4-3-6-7-6-13v-341c0-6 2-12 5-18 3-6 8-11 13-14 5-3 10-3 13-1 4 2 6 6 6 12v271l128-354c2-5 5-10 8-14 4-4 7-8 11-10 6-3 11-4 14-2 4 2 6 7 6 14v341c0 6-2 12-5 18-3 6-8 11-13 14-5 3-10 3-13 1-4-2-6-6-6-12v-271l-128 355c-2 5-5 10-8 14-4 4-7 7-11 9zm82-496c5-3 10-8 15-14 5-6 10-15 15-26 2-4 4-7 6-10 3-3 5-5 8-7 4-2 7-3 10-1 3 1 3 6 2 14-2 8-4 16-8 24-4 8-9 15-14 22-5 7-11 13-17 18-6 5-11 9-17 12-5 3-11 5-17 7-6 2-11 2-17 2-5 0-10-2-14-5-4-3-7-8-9-14-2-6-1-12 2-16 3-5 6-8 10-11 2-1 5-2 8-2 3 0 5 1 6 3 5 5 10 8 15 9 5 0 10-1 15-4zm345 228c0 6-2 12-5 18-4 6-8 11-13 14-5 3-10 3-13 1-4-2-5-6-5-12v-335c0-6 2-13 6-20 4-7 9-13 15-16l125-72c5-3 9-3 13-1 3 2 5 6 5 12 0 6-2 12-5 18-3 6-8 10-13 13l-109 63v318zm198-236v121c0 6-2 12-5 19-4 6-8 11-13 14-5 3-9 3-13 1-4-2-6-6-6-12v-333c0-7 2-14 6-22 4-7 10-13 16-16l68-39c19-11 35-17 48-18 13-1 24 2 32 8 8 6 14 16 18 28 4 12 6 26 6 42 0 38-9 72-28 103-19 31-44 56-76 74l-53 31zm0-42l53-31c22-13 39-29 50-47 11-19 17-41 17-68 0-10-1-18-3-27-2-8-5-14-10-19-5-4-12-6-21-6-9 1-20 5-33 13l-53 31v154m318-125c-6 22-11 42-16 60-5 18-12 35-19 50-7 15-16 29-26 41-10 12-23 23-38 32-5 3-10 4-13 2-4-2-5-6-5-12 0-5 2-10 5-16 3-6 7-10 12-14 7-5 14-9 19-14 5-5 10-11 14-18 4-7 8-14 12-23 4-9 7-19 10-30l-87-215c-1 0-1-1-1-3 0-2 0-3 0-4 0-6 2-11 5-17 3-6 8-10 13-13 3-2 7-3 9-2 3 1 5 3 7 7l71 181 69-262c2-5 4-10 7-14 3-4 6-7 10-9 5-3 9-3 12-1 4 2 6 6 6 12 0 3 0 5-1 7l-75 275m295-152c0 15-2 30-7 45-5 16-11 31-20 46-9 15-19 29-32 42-12 13-26 24-42 33-8 5-18 9-28 14-11 4-21 7-30 9-9 2-17 1-23-1-6-2-9-7-9-14 0-5 2-11 5-16 3-6 7-10 11-12 2-1 3-1 4-2 1 0 3 0 5 0 8 1 17 1 26 0 9-1 21-5 34-13 23-13 40-30 52-50 11-20 17-40 17-59 0-12-2-21-6-27-4-6-10-10-17-11-7-1-16 0-25 3-10 3-20 8-31 13-5 3-10 4-15 5-5 1-7-3-7-13 0-5 1-9 2-13 2-4 3-7 6-9 2-2 4-5 7-6 2-2 5-3 6-5 9-6 18-13 27-21 9-8 17-16 24-26 7-9 13-20 17-30 4-11 7-22 7-34 0-7-1-14-3-21-2-6-5-11-10-14-4-3-10-5-18-4-7 1-16 4-27 10-7 4-15 9-22 15-7 6-14 12-20 20-5 6-10 12-15 18-4 6-9 10-13 13-4 2-8 3-11 1-3-1-5-5-5-10 0-7 3-15 9-24 6-9 13-18 22-27 9-9 18-18 29-26 10-8 20-15 29-20 15-9 28-13 39-14 11-1 21 2 28 7 8 5 13 13 17 23 4 10 6 21 6 34 0 21-5 42-15 62-10 20-23 39-40 56 18-4 34-2 45 6 12 8 18 23 18 47z" fill="#a2aebf"/><path d="m2325 4016c0 6-2 12-5 18-4 6-8 11-13 14-5 3-9 3-13 1-4-2-6-6-6-12v-151l-126 73v151c0 6-2 12-5 18-4 6-8 11-13 14-5 3-10 3-13 1-4-2-5-6-5-12v-343c0-6 2-12 5-18 4-6 8-11 13-14 5-3 10-3 13-1 4 2 5 6 5 12v151l126-73v-151c0-6 2-12 6-18 4-6 8-11 13-14 5-3 9-3 13-1 4 2 6 6 6 12v343zm237-142c0 6-2 12-5 18-4 6-8 11-13 14l-122 70c-8 4-14 7-20 6-6 0-9-5-9-15v-325c0-6 2-13 6-21 4-8 9-13 15-17l125-72c5-3 10-4 13-1 4 2 5 6 5 12 0 6-2 12-5 18-4 6-8 10-13 13l-110 63v125l101-58c5-3 9-3 12-1 4 2 6 6 6 12 0 6-2 12-5 18-3 6-8 10-13 13l-101 58v126l114-66c5-3 9-3 13-2 4 2 6 5 6 11zm86-44c0 6-2 12-5 18-4 6-8 11-13 14-5 3-10 3-13 1-4-2-5-6-5-12v-335c0-6 2-13 6-20 4-7 9-13 15-16l125-72c5-3 9-3 13-1 3 2 5 6 5 12 0 6-2 12-5 18-3 6-8 10-13 13l-109 63v318zm176-96c-2 6-4 11-7 16-3 5-7 8-10 10-5 3-10 4-14 2-4-2-6-6-6-12 0-1 0-3 0-4 0-2 0-3 1-4l90-380c2-9 5-18 9-25 4-7 9-13 15-17 7-4 12-4 16-1 3 3 6 8 9 15l90 276c0 1 1 2 1 3 0 2 0 3 0 4 0 6-2 13-6 19-4 6-8 11-14 14-3 2-7 3-11 2-4-1-6-3-7-7l-20-63-117 67-19 85m30-133l95-55-47-153-47 208zm245-349v108l53-31c32-18 57-23 76-15 19 8 28 31 28 67 0 15-2 30-6 46-4 16-10 32-18 47-8 15-19 30-32 44-13 14-29 27-48 38l-68 39c-6 4-11 4-16 2-4-2-6-7-6-14v-326c0-6 2-13 6-20 4-7 9-13 15-16l135-78c5-3 10-3 13-1 3 2 5 6 5 12 0 6-2 12-5 18-3 6-8 10-13 13l-118 68zm53 262c14-8 25-16 33-26 9-9 16-19 21-28 5-10 8-19 10-29 2-10 3-19 3-28 0-48-22-58-67-33l-53 31v144l53-31m167-65c-2 6-4 11-7 16-3 5-7 8-10 10-5 3-10 4-14 2-4-2-6-6-6-12 0-1 0-3 0-4 0-2 0-3 1-4l90-380c2-9 5-18 9-25 4-7 9-13 15-17 7-4 12-4 16-1 3 3 6 8 9 15l90 276c0 1 1 2 1 3 0 2 0 3 0 4 0 6-2 13-6 19-4 6-8 11-14 14-3 2-7 3-11 2-4-1-6-3-7-7l-20-63-117 67-19 85m30-133l95-55-47-153-47 208zm245-154v121c0 6-2 12-5 19-4 6-8 11-13 14-5 3-9 3-13 1-4-2-6-6-6-12v-333c0-7 2-14 6-22 4-7 10-13 16-16l68-39c19-11 35-17 48-18 13-1 24 2 32 8 8 6 14 16 18 28 4 12 6 26 6 42 0 38-9 72-28 103-19 31-44 56-76 74l-53 31zm0-42l53-31c22-13 39-29 50-47 11-19 17-41 17-68 0-10-1-18-3-27-2-8-5-14-10-19-5-4-12-6-21-6-9 1-20 5-33 13l-53 31v154m228 54c-6 4-11 4-15 2-4-3-6-7-6-13v-341c0-6 2-12 5-18 3-6 8-11 13-14 5-3 10-3 13-1 4 2 6 6 6 12v271l128-354c2-5 5-10 8-14 4-4 7-8 11-10 6-3 11-4 14-2 4 2 6 7 6 14v341c0 6-2 12-5 18-3 6-8 11-13 14-5 3-10 3-13 1-4-2-6-6-6-12v-271l-128 355c-2 5-5 10-8 14-4 4-7 7-11 9zm310-518l-63 36c-5 3-10 4-13 1-4-2-5-6-5-12 0-5 2-10 5-17 4-7 8-11 13-14l162-94c5-3 9-3 13-2 4 2 6 6 6 12 0 6-2 12-6 18-4 6-8 11-13 14l-63 36v318c0 6-2 12-5 18-4 6-8 11-13 14-5 3-10 3-13 1-4-2-5-6-5-12v-318zm363 108c0 6-2 12-5 18-4 6-8 11-13 14-5 3-9 3-13 1-4-2-6-6-6-12v-151l-126 73v151c0 6-2 12-5 18-4 6-8 11-13 14-5 3-10 3-13 1-4-2-5-6-5-12v-343c0-6 2-12 5-18 4-6 8-11 13-14 5-3 10-3 13-1 4 2 5 6 5 12v151l126-73v-151c0-6 2-12 6-18 4-6 8-11 13-14 5-3 9-3 13-1 4 2 6 6 6 12v343zm158-312c32-18 57-23 76-13 19 9 28 33 28 71 0 16-2 32-6 48-4 17-10 33-18 49-8 16-19 31-32 45-13 14-29 27-48 38l-68 39c-6 4-11 4-16 2-4-2-6-7-6-14v-333c0-6 2-12 6-19 4-7 8-11 13-14 5-3 10-3 13-1 4 2 5 7 5 13v121l53-31zm-53 226l53-31c14-8 25-16 33-26 9-9 16-19 21-30 5-10 8-21 10-31 2-10 3-20 3-30 0-26-6-42-17-48-11-6-28-3-50 10l-53 31v154zm193-86c0 6 2 10 5 12 4 2 8 2 13-1 5-3 10-8 13-14 4-6 5-12 5-18v-343c0-6-2-10-5-12-4-2-8-2-13 1-5 3-10 8-13 14-4 6-5 12-5 18v343m125-51c-6 4-11 4-15 2-4-3-6-7-6-13v-341c0-6 2-12 5-18 3-6 8-11 13-14 5-3 10-3 13-1 4 2 6 6 6 12v271l128-354c2-5 5-10 8-14 4-4 7-8 11-10 6-3 11-4 14-2 4 2 6 7 6 14v341c0 6-2 12-5 18-3 6-8 11-13 14-5 3-10 3-13 1-4-2-6-6-6-12v-271l-128 355c-2 5-5 10-8 14-4 4-7 7-11 9zm82-496c5-3 10-8 15-14 5-6 10-15 15-26 2-4 4-7 6-10 3-3 5-5 8-7 4-2 7-3 10-1 3 1 3 6 2 14-2 8-4 16-8 24-4 8-9 15-14 22-5 7-11 13-17 18-6 5-11 9-17 12-5 3-11 5-17 7-6 2-11 2-17 2-5 0-10-2-14-5-4-3-7-8-9-14-2-6-1-12 2-16 3-5 6-8 10-11 2-1 5-2 8-2 3 0 5 1 6 3 5 5 10 8 15 9 5 0 10-1 15-4zm345 228c0 6-2 12-5 18-4 6-8 11-13 14-5 3-10 3-13 1-4-2-5-6-5-12v-335c0-6 2-13 6-20 4-7 9-13 15-16l125-72c5-3 9-3 13-1 3 2 5 6 5 12 0 6-2 12-5 18-3 6-8 10-13 13l-109 63v318zm198-236v121c0 6-2 12-5 19-4 6-8 11-13 14-5 3-9 3-13 1-4-2-6-6-6-13v-333c0-7 2-14 6-22 4-7 10-13 16-16l68-39c19-11 35-17 48-18 13-1 24 2 32 8 8 6 14 16 18 28 4 12 6 26 6 42 0 38-9 72-28 103-19 31-44 56-76 74l-53 31m0-42l53-31c22-13 39-29 50-47 11-19 17-41 17-68 0-10-1-18-3-27-2-8-5-14-10-19-5-4-12-6-21-6-9 1-20 5-33 13l-53 31v154m318-125c-6 22-11 42-16 60-5 18-12 35-19 50-7 15-16 29-26 41-10 12-23 23-38 32-5 3-10 4-13 2-4-2-5-6-5-12 0-5 2-10 5-16 3-6 7-10 12-14 7-5 14-9 19-14 5-5 10-11 14-18 4-7 8-14 12-23 4-9 7-19 10-30l-87-215c-1 0-1-1-1-3 0-2 0-3 0-4 0-6 2-11 5-17 3-6 8-10 13-13 3-2 7-3 9-2 3 1 5 3 7 7l71 181 69-262c2-5 4-10 7-14 3-4 6-7 10-9 5-3 9-3 12-1 4 2 6 6 6 12 0 3 0 5-1 7l-75 275m295-152c0 15-2 30-7 45-5 16-11 31-20 46-9 15-19 29-32 42-12 13-26 24-42 33-8 5-18 9-28 14-11 4-21 7-30 9-9 2-17 1-23-1-6-2-9-7-9-14 0-5 2-11 5-16 3-6 7-10 11-12 2-1 3-1 4-2 1 0 3 0 5 0 8 1 17 1 26 0 9-1 21-5 34-13 23-13 40-30 52-50 11-20 17-40 17-59 0-12-2-21-6-27-4-6-10-10-17-11-7-1-16 0-25 3-10 3-20 8-31 13-5 3-10 4-15 5-5 1-7-3-7-13 0-5 1-9 2-13 2-4 3-7 6-9 2-2 4-5 7-6 2-2 5-3 6-5 9-6 18-13 27-21 9-8 17-16 24-26 7-9 13-20 17-30 4-11 7-22 7-34 0-7-1-14-3-21-2-6-5-11-10-14-4-3-10-5-18-4-7 1-16 4-27 10-7 4-15 9-22 15-7 6-14 12-20 20-5 6-10 12-15 18-4 6-9 10-13 13-4 2-8 3-11 1-3-1-5-5-5-10 0-7 3-15 9-24 6-9 13-18 22-27 9-9 18-18 29-26 10-8 20-15 29-20 15-9 28-13 39-14 11-1 21 2 28 7 8 5 13 13 17 23 4 10 6 21 6 34 0 21-5 42-15 62-10 20-23 39-40 56 18-4 34-2 45 6 12 8 18 23 18 47z" fill="#fff"/><path d="m3968 4083c0 2-1 4-2 5-1 2-2 3-4 4-2 1-3 1-4 0-1-1-2-2-2-4v-69c0-2 1-3 2-5 1-2 2-3 4-4 2-1 3-1 4 0 1 1 2 2 2 3v28l29-17v-28c0-2 1-3 2-5 1-2 2-3 4-4 2-1 3-1 4 0 1 1 2 2 2 3v69c0 2 0 4-2 5-1 2-2 3-4 4-2 1-3 1-4 0-1-1-2-2-2-4v-31l-29 17v31zm81-52c3-2 5-4 8-6 2-2 4-4 7-7 0 0 0 0 1-1 0 0 1-1 1-1 1-1 3-1 3 0 1 1 1 2 1 3 0 2-1 4-2 6-2 2-4 4-6 7-2 2-5 4-7 6-3 2-5 3-7 4-4 2-7 4-10 4-3 0-6 0-8-1-2-1-4-3-5-6-1-3-2-6-2-9v-29c0-4 1-8 2-11 1-4 3-8 5-11 2-4 5-7 8-10 3-3 7-6 11-8 8-4 13-5 17-3 4 2 6 8 6 16 0 7-2 14-5 20-4 6-10 12-18 16-2 1-4 2-7 4-2 1-5 2-7 3v9c0 4 1 7 4 8 3 1 6 0 11-2zm12-52c0-5-1-8-3-9-2-1-5 0-9 2-4 3-8 6-10 10-2 4-4 8-4 13v12c3-1 5-2 8-4 3-1 5-3 6-3 3-1 5-3 6-5 2-2 3-3 4-5 1-2 1-3 2-5 0-2 0-3 0-5zm63-56c0-10 2-19 6-27 4-8 11-16 21-22 1-1 2-1 3-2 1-1 2-1 3-2 1-1 2-2 3-3 1-1 3-3 5-6 0 0 0 0 1-1 0 0 1-1 1-1 1-1 3-1 3 0 1 1 1 2 1 3 0 2-1 4-2 6-2 2-3 4-6 6-2 2-4 4-7 6-2 2-4 3-6 4-1 1-3 2-5 4-2 2-4 4-5 6-2 2-3 5-4 9-1 4-2 8-2 13v8c2-4 4-7 7-10 3-3 6-6 10-8 4-2 7-3 10-3 3 0 5 0 7 2 2 1 4 3 5 6 1 3 2 6 2 10v22c0 4-1 8-2 12-1 4-3 8-5 12-2 4-5 7-8 11-3 3-7 6-11 9-4 2-8 4-11 4-3 0-6 0-8-1-2-1-4-3-5-6-1-3-2-6-2-10v-48zm26 50c5-3 9-6 11-11 3-4 4-9 4-14v-22c0-5-1-9-3-10-2-2-6-1-11 2-5 3-9 6-11 11-3 4-4 9-4 14v23c0 5 1 9 4 10 3 2 6 1 11-2zm63-25c-4 2-8 4-11 4-3 0-6 0-8-1-2-1-4-3-5-6-1-3-2-6-2-10v-26c0-4 1-8 2-12 1-4 3-8 5-12 2-4 5-7 8-11 3-3 7-6 11-9 4-2 8-4 11-4 3 0 6 0 8 1 2 1 4 3 5 6 1 3 2 6 2 10v26c0 4-1 8-2 12-1 4-3 8-5 12-2 4-5 7-8 11-3 3-7 6-11 9m0-11c5-3 9-6 11-11 3-4 4-9 4-14v-26c0-5-1-8-4-10-3-2-6-1-11 2-5 3-9 6-11 11-3 4-4 9-4 14v26c0 5 1 9 4 10 3 2 6 1 11-2m93-49c0 2-1 4-2 5-1 2-2 3-4 4-2 1-3 1-4 0-1-1-1-2-1-4v-64l-22 13-3 45c-1 8-2 16-5 22-3 6-6 11-12 14-1 1-2 1-3 2-1 1-2 1-3 1-1 0-1 0-2-1 0 0-1-1-1-3 0-2 1-4 2-5 1-2 2-3 3-3 0 0 1 0 1 0 0 0 0 0 1 0 2-1 4-4 5-7 1-3 2-7 2-12l4-51c0-2 1-4 2-6 1-2 2-3 3-3l31-18c2-1 3-1 4 0 1 1 2 2 2 3v69zm42-29c3-2 5-4 8-6 2-2 4-4 7-7 0 0 0 0 1-1 0 0 1-1 1-1 1-1 3-1 3 0 1 1 1 2 1 3 0 2-1 4-2 6-2 2-4 4-6 7-2 2-5 4-7 6-3 2-5 3-7 4-4 2-7 4-10 4-3 0-6 0-8-1-2-1-4-3-5-6-1-3-2-6-2-9v-29c0-4 1-8 2-11 1-4 3-8 5-11 2-4 5-7 8-10 3-3 7-6 11-8 8-4 13-5 17-3 4 2 6 8 6 16 0 7-2 14-5 20-4 6-10 12-18 16-2 1-4 2-7 4-2 1-5 2-7 3v9c0 4 1 7 4 8 3 1 6 0 11-2zm12-52c0-5-1-8-3-9-2-1-5 0-9 2-4 3-8 6-10 10-2 4-4 8-4 13v12c3-1 5-2 8-4 3-1 5-3 6-3 3-1 5-3 6-5 2-2 3-3 4-5 1-2 1-3 2-5 0-2 0-3 0-5zm47 18c3-2 5-4 8-6 2-2 4-4 7-7 0 0 0 0 1-1 0 0 1-1 1-1 1-1 3-1 3 0 1 1 1 2 1 3 0 2-1 4-2 6-2 2-4 4-6 7-2 2-5 4-7 6-3 2-5 3-7 4-4 2-7 4-10 4-3 0-6 0-8-1-2-1-4-3-5-6-1-3-2-6-2-9v-29c0-4 1-8 2-11 1-4 3-8 5-11 2-4 5-7 8-10 3-3 7-6 11-8 8-4 13-5 17-3 4 2 6 8 6 16 0 7-2 14-5 20-4 6-10 12-18 16-2 1-4 2-7 4-2 1-5 2-7 3v9c0 4 1 7 4 8 3 1 6 0 11-2zm12-52c0-5-1-8-3-9-2-1-5 0-9 2-4 3-8 6-10 10-2 4-4 8-4 13v12c3-1 5-2 8-4 3-1 5-3 6-3 3-1 5-3 6-5 2-2 3-3 4-5 1-2 1-3 2-5 0-2 0-3 0-5zm94-95l-17 22c-1 1-2 3-3 4-1 1-2 2-3 3-1 1-2 1-3 0-1 0-2-1-2-3 0-2 1-5 2-7l27-35c1-1 2-2 3-3 2-1 3-1 4 0 1 1 2 2 2 4v101c0 2-1 3-2 5-1 2-2 3-4 4-2 1-3 1-4 0-1-1-2-2-2-4v-92zm96 11c0 5-1 9-2 14-2 5-4 9-6 14-3 4-6 8-9 12-4 4-8 7-12 10-4 3-8 4-12 5-4 1-7 0-10-1-3-1-5-3-6-6-2-3-2-7-2-11 0-7 2-14 5-20 3-6 7-12 12-18-4-1-7-2-10-5-3-3-4-7-4-13 0-4 1-9 2-13 1-4 3-8 6-12 2-4 5-7 9-11 3-3 7-6 10-8 4-2 7-3 11-4 3-1 6 0 9 1 2 1 4 3 6 6 1 3 2 6 2 10 0 5-1 11-3 16-2 5-6 11-10 16 5 0 9 2 12 4 3 3 5 8 5 15zm-14-45c0-3 0-5-1-6-1-2-2-3-3-4-1-1-3-1-5-1-2 0-4 1-6 2-2 1-4 3-6 5-2 2-4 4-5 7-1 2-3 5-3 7-1 3-1 5-1 8 0 3 0 5 1 7 1 2 2 3 4 4 2 1 3 1 5 1 2 0 4-1 6-1 4-4 8-8 11-13 3-5 5-10 5-15zm3 51c0-3-1-6-2-8-1-2-3-3-4-4-2-1-4-1-6-1-2 0-5 1-7 2-3 2-5 5-7 7-2 3-4 5-6 8-2 3-3 6-4 9-1 3-2 6-2 9 0 3 1 6 2 7 1 2 2 3 4 4 2 1 4 1 6 1 2 0 5-1 8-3 3-2 5-4 8-6 2-2 4-5 6-8 2-3 3-6 4-9 1-3 1-6 1-9zm99-39c-2 1-4 1-5-1l-18-27v49c0 2-1 3-2 5-1 2-2 3-4 4-1 1-3 1-4 0-1-1-2-2-2-3v-69c0-2 1-4 2-6 1-2 2-3 4-4 1-1 2-1 3-1 1 0 2 1 2 2l22 34 22-60c1-2 1-3 2-4 1-1 2-2 3-3 2-1 3-1 4 0 1 1 2 2 2 4v69c0 2-1 3-2 5-1 2-2 3-4 4-2 1-3 1-4 0-1-1-2-2-2-3v-49l-18 47c-1 3-3 5-5 7zm76-40c3-2 5-4 8-6 2-2 4-4 7-7 0 0 0 0 1-1 0 0 1-1 1-1 1-1 3-1 3 0 1 1 1 2 1 3 0 2-1 4-2 6-2 2-4 4-6 7-2 2-5 4-7 6-3 2-5 3-7 4-4 2-7 4-10 4-3 0-6 0-8-1-2-1-4-3-5-6-1-3-2-6-2-9v-29c0-4 1-8 2-11 1-4 3-8 5-11 2-4 5-7 8-10 3-3 7-6 11-8 8-4 13-5 17-3 4 2 6 8 6 16 0 7-2 14-5 20-4 6-10 12-18 16-2 1-4 2-7 4-2 1-5 2-7 3v9c0 4 1 7 4 8 3 1 6 0 11-2zm12-52c0-5-1-8-3-9-2-1-5 0-9 2-4 3-8 6-10 10-2 4-4 8-4 13v12c3-1 5-2 8-4 3-1 5-3 6-3 3-1 5-3 6-5 2-2 3-3 4-5 1-2 1-3 2-5 0-2 0-3 0-5zm49 22c0 2-1 4-2 5-1 2-2 3-4 4-2 1-3 1-4 0-1-1-1-2-1-4v-63l-14 8c-1 1-3 1-3 0-1-1-1-2-1-3 0-2 0-3 1-5 1-2 2-3 3-4l39-23c1-1 3-1 3 0 1 1 1 2 1 3 0 2 0 3-1 5-1 2-2 3-3 4l-14 8v63zm59-28c-2 1-5 3-8 4-3 1-5 2-8 2v30c0 2 0 3-1 5-1 2-2 3-4 4-2 1-3 1-4 1-1-1-1-2-1-3v-86c0-3 0-5 0-6 0-1-1-3-2-4 0 0-1-1-1-1 0 0 0-1 0-2 0-2 1-3 2-5 1-2 2-3 3-3 1-1 2-1 3-1 1 0 2 1 2 1 3-4 6-7 10-10 3-3 7-6 10-8 7-4 13-5 16-1 4 3 5 10 5 18v20c0 5 0 9-1 14-1 4-2 8-4 12-2 4-4 7-7 11-3 3-7 6-11 9zm-15-5c2 0 5-1 7-2 3-1 5-2 7-3 5-3 9-7 11-11 2-5 3-10 3-18v-20c0-13-4-16-13-11-2 1-5 3-7 6-3 2-5 5-7 8 0 2 1 4 1 6v45zm76-30c-4 2-8 4-11 4-3 0-6 0-8-1-2-1-4-3-5-6-1-3-2-6-2-10v-26c0-4 1-8 2-12 1-4 3-8 5-12 2-4 5-7 8-11 3-3 7-6 11-9 4-2 8-4 11-4 3 0 6 0 8 1 2 1 4 3 5 6 1 3 2 6 2 10v26c0 4-1 8-2 12-1 4-3 8-5 12-2 4-5 7-8 11-3 3-7 6-11 9m0-11c5-3 9-6 11-11 3-4 4-9 4-14v-26c0-5-1-8-4-10-3-2-6-1-11 2-5 3-9 6-11 11-3 4-4 9-4 14v26c0 5 1 9 4 10 3 2 6 1 11-2m88-98c0 4-1 8-2 12-2 4-4 7-7 11 4-1 7 0 8 2 2 2 3 5 3 10 0 7-2 13-6 19-4 6-9 12-17 16l-20 11c-2 1-3 1-4 0-1-1-2-2-2-3v-67c0-2 1-3 2-5 1-2 2-3 4-4l18-11c4-2 7-4 10-4 3-1 5 0 7 1 2 1 3 2 4 5 1 2 1 5 1 8zm-9 40c0-1 0-3-1-4 0-1-1-2-2-3-1-1-2-1-4 0-2 0-4 1-7 3l-13 7v25l14-8c4-2 7-5 9-8 2-3 3-7 3-11zm-26-7l13-7c3-1 5-3 6-5 2-2 3-3 4-5 1-2 1-3 2-5 0-2 0-3 0-4 0-4-1-7-3-8-2-1-5 0-9 2l-13 7v23z"/><path d="m314 5136c0 2-1 3-2 3-1 1-2 0-4 0l-45-26c-2-1-3-2-4-4-1-2-2-4-2-6 0-1 0-2 0-3 0-1 0-2 1-3 2-4 4-7 7-10 3-3 6-5 9-7 3-2 7-4 10-6 3-2 7-4 10-6 2-1 4-3 5-6 2-2 2-6 2-10 0-6-1-11-4-17-3-6-7-10-13-13-3-2-5-3-7-3-2-1-4-1-6-1-2 0-3 0-4 0-1 0-2 0-4-1-1-1-2-2-4-4-1-2-2-3-2-5 0-1 0-2 1-3 1-1 1-1 3-1 4-1 7 0 11 1 4 1 8 3 12 5 4 3 8 6 12 9 3 4 6 7 9 11 2 4 4 8 5 13 1 4 2 9 2 13 0 7-1 12-3 15-2 4-4 6-7 8-3 2-6 4-9 5-3 2-6 3-9 5-3 2-6 4-8 6-3 2-5 5-6 8l38 22c2 1 3 2 4 4 1 2 2 3 2 5zm29 16c0 3 0 5-1 8-1 3-2 5-3 7-1 2-2 3-3 4-1 1-2 1-3 1-1 0-1-1-2-2-1-1-1-2-1-3 0-1 0-2 1-3 0-1 1-2 1-2 1-1 1-2 2-3 1-1 1-2 2-3-2-1-4-3-5-6-1-2-2-5-2-7 0-2 1-4 2-5 1-1 3-1 5 1 2 1 4 3 5 5 1 2 2 5 2 7zm70 12c0 4-1 9-2 12-1 4-3 7-5 9-2 2-5 3-9 4-3 0-8-1-13-4-1-1-4-2-6-4-3-2-6-4-9-7-3-3-6-5-8-8-2-3-3-5-3-8 0-2 0-3 1-3 1-1 2-1 4 0 1 1 2 1 3 3 2 2 4 5 6 7 2 3 5 5 9 7 4 2 7 3 10 3 3 0 5-1 6-2 2-1 3-3 3-6 1-3 1-5 1-9 0-4 0-8-1-11-1-3-2-7-4-9-2-3-3-5-5-7-2-2-4-4-7-5-2-1-4-2-5-2-2 0-3 0-5 0-2 0-3 0-4 1-1 0-2 0-4-1-2-1-3-2-4-4-1-2-2-4-2-6l1-46c0-2 1-3 2-4 1 0 3 0 4 1l33 19c2 1 3 2 4 4 1 2 2 4 2 6 0 2-1 3-2 3-1 0-3 0-4-1l-29-17-1 33c2 0 4 0 6 1 2 1 4 2 7 3 4 2 8 5 11 9 3 3 6 7 9 12 2 4 4 9 6 14 1 5 2 10 2 15zm91 75c-2-1-4-4-5-7l-18-47v49c0 2-1 3-2 3-1 1-2 0-4 0-1-1-3-2-4-4-1-2-2-4-2-5v-69c0-2 1-3 2-4 1-1 2 0 4 0 1 1 2 2 3 3 1 1 2 3 2 4l22 60 22-34c1-1 1-1 2-2 1 0 2 0 3 1 2 1 3 2 4 4 1 2 2 4 2 6v69c0 2-1 3-2 3-1 1-2 1-4 0-2-1-3-2-4-4-1-2-2-4-2-5v-49l-18 27c-1 2-3 2-5 1zm76 47c3 2 5 3 8 3 2 0 4 1 7 1 0 0 0 0 1 0 0 0 1 0 1 1 1 1 3 2 3 4 1 2 1 3 1 5 0 2-1 3-2 3-2 0-4 0-6 0-2-1-5-1-7-2-3-1-5-2-7-3-4-2-7-5-10-8-3-3-6-6-8-10-2-4-4-7-5-11-1-4-2-8-2-11v-29c0-4 1-7 2-10 1-3 3-5 5-6 2-1 5-2 8-1 3 0 7 2 11 4 8 4 13 10 17 17 4 7 6 14 6 22 0 7-2 12-5 14-4 2-10 1-18-4-2-1-4-3-7-4-2-2-5-3-7-5v9c0 4 1 9 4 13 3 4 6 8 11 10zm12-39c0-5-1-9-3-13-2-3-5-6-9-9-4-3-8-3-10-2-2 1-4 4-4 8v12c3 2 5 4 8 6 3 2 5 3 6 4 3 1 5 2 6 2 2 0 3 0 4-1 1-1 1-2 2-3 0-1 0-3 0-4m49 79c0 2-1 3-2 4-1 1-2 0-4 0-2-1-3-2-4-4-1-2-1-4-1-5v-63l-14-8c-1-1-3-2-3-4-1-2-1-3-1-5 0-2 0-3 1-3 1-1 2 0 3 0l39 23c1 1 3 2 3 4 1 2 1 3 1 5 0 2 0 3-1 3-1 1-2 0-3 0l-14-8v63zm59 40c-2-1-5-3-8-5-3-2-5-4-8-7v30c0 2 0 3-1 3-1 1-2 0-4-1-2-1-3-2-4-4-1-2-1-3-1-5v-86c0-3 0-5 0-7 0-2-1-4-2-6 0-1-1-1-1-2 0-1 0-1 0-2 0-2 1-3 2-3 1 0 2 0 3 0 1 1 2 2 3 3 1 1 2 3 2 4 3 0 6 0 10 1 3 1 7 2 10 4 7 4 13 10 16 18 4 8 5 16 5 25v20c0 5 0 9-1 12-1 3-2 6-4 8-2 2-4 3-7 2-3 0-7-1-11-4zm-15-23c2 2 5 5 7 7 3 2 5 4 7 5 5 3 9 3 11 1 2-2 3-7 3-14v-20c0-13-4-21-13-26-2-1-5-2-7-3-3-1-5-1-7 0 0 3 1 5 1 7v45zm76 58c-4-2-8-5-11-9-3-3-6-7-8-11-2-4-4-8-5-12-1-4-2-8-2-12v-26c0-4 1-7 2-10 1-3 3-5 5-6 2-1 5-2 8-1 3 0 7 2 11 4 4 2 8 5 11 9 3 3 6 7 8 11 2 4 4 8 5 12 1 4 2 8 2 12v26c0 4-1 7-2 10-1 3-3 5-5 6-2 1-5 2-8 1-3 0-7-2-11-4m0-11c5 3 9 4 11 2 3-2 4-5 4-10v-26c0-5-1-10-4-14-3-4-6-8-11-11-5-3-9-4-11-2-3 1-4 5-4 10v26c0 5 1 10 4 14 3 4 6 8 11 11m88 4c0 4-1 7-2 9-2 2-4 3-7 2 4 4 7 8 8 12 2 4 3 8 3 13 0 7-2 11-6 13-4 2-9 1-17-4l-20-11c-2-1-3-2-4-4-1-2-2-4-2-5v-67c0-2 1-3 2-3 1-1 2-1 4 0l18 11c4 2 7 5 10 7 3 3 5 6 7 9 2 3 3 6 4 9 1 3 1 6 1 10zm-9 29c0-1 0-3-1-5 0-2-1-3-2-5-1-2-2-3-4-5-2-2-4-4-7-5l-13-7v25l14 8c4 2 7 3 9 2 2-1 3-3 3-8zm-26-38l13 7c3 1 5 2 6 3 2 0 3 0 4 0 1-1 1-1 2-3 0-1 0-2 0-4 0-4-1-8-3-11-2-3-5-6-9-8l-13-7v23"/><path d="m269 4929c0 2-1 3-2 4-1 1-2 0-4 0-2-1-3-2-4-4-1-2-2-4-2-5v-69c0-2 1-3 2-3 1-1 2-1 4 0 2 1 3 2 4 4 1 2 2 4 2 5v28l29 17v-28c0-2 1-3 2-3 1-1 2-1 4 0 2 1 3 2 4 4 1 2 2 4 2 5v69c0 2 0 3-2 4-1 1-2 0-4 0-2-1-3-2-4-4-1-2-2-4-2-5v-31l-29-17v31zm81 42c3 2 5 3 8 3 2 0 4 1 7 1 0 0 0 0 1 0 0 0 1 0 1 1 1 1 3 2 3 4 1 2 1 3 1 5 0 2-1 3-2 3-2 0-4 0-6 0-2-1-5-1-7-2-3-1-5-2-7-3-4-2-7-5-10-8-3-3-6-6-8-10-2-4-4-7-5-11-1-4-2-8-2-11v-29c0-4 1-7 2-10 1-3 3-5 5-6 2-1 5-2 8-1 3 0 7 2 11 4 8 4 13 10 17 17 4 7 6 14 6 22 0 7-2 12-5 14-4 2-10 1-18-4-2-1-4-3-7-4-2-2-5-3-7-5v9c0 4 1 9 4 13 3 4 6 8 11 10zm12-39c0-5-1-9-3-13-2-3-5-6-9-9-4-3-8-3-10-2-2 1-4 4-4 8v12c3 2 5 4 8 6 3 2 5 3 6 4 3 1 5 2 6 2 2 0 3 0 4-1 1-1 1-2 2-3 0-1 0-3 0-4m63 16c0-10 2-17 6-20 4-3 11-3 21 2 1 1 2 1 3 1 1 0 2 1 3 1 1 0 2 1 3 1 1 0 3 0 5 0 0 0 0 0 1 0 0 0 1 0 1 1 1 1 3 2 3 4 1 2 1 3 1 5 0 2-1 3-2 4-2 0-3 0-6 0-2-1-4-1-7-2-2-1-4-2-6-3-1-1-3-1-5-2-2-1-4-1-5 0-2 1-3 2-4 4-1 2-2 6-2 11v8c2-2 4-2 7-2 3 0 6 1 10 3 4 2 7 5 10 8 3 3 5 7 7 10 2 4 4 8 5 12 1 4 2 8 2 12v22c0 4-1 7-2 10-1 3-3 5-5 6-2 1-5 2-8 1-3 0-7-2-11-4-4-2-8-5-11-9-3-3-6-7-8-11-2-4-4-8-5-12-1-4-2-8-2-12v-48zm26 80c5 3 9 4 11 2 3-2 4-5 4-10v-22c0-5-1-10-3-14-2-4-6-8-11-11-5-3-9-4-11-2-3 1-4 4-4 9v23c0 5 1 10 4 14 3 4 6 8 11 11zm63 48c-4-2-8-5-11-9-3-3-6-7-8-11-2-4-4-8-5-12-1-4-2-8-2-12v-26c0-4 1-7 2-10 1-3 3-5 5-6 2-1 5-2 8-1 3 0 7 2 11 4 4 2 8 5 11 9 3 3 6 7 8 11 2 4 4 8 5 12 1 4 2 8 2 12v26c0 4-1 7-2 10-1 3-3 5-5 6-2 1-5 2-8 1-3 0-7-2-11-4m0-11c5 3 9 4 11 2 3-2 4-5 4-10v-26c0-5-1-10-4-14-3-4-6-8-11-11-5-3-9-4-11-2-3 1-4 5-4 10v26c0 5 1 10 4 14 3 4 6 8 11 11m93 59c0 2-1 3-2 4-1 1-2 0-4 0-2-1-3-2-4-4-1-2-1-3-1-5v-64l-22-13-3 42c-1 8-2 13-5 17-3 3-6 4-12 0-1-1-2-1-3-2-1-1-2-1-3-2-1-1-1-2-2-3 0-1-1-2-1-4 0-2 1-3 2-4 1 0 2 0 3 1 0 0 1 0 1 1 0 0 0 0 1 1 2 1 4 1 5 0 1-2 2-5 2-9l4-47c0-2 1-3 2-4 1 0 2 0 3 1l31 18c2 1 3 2 4 4 1 2 2 4 2 5v69zm42 19c3 2 5 3 8 3 2 0 4 1 7 1 0 0 0 0 1 0 0 0 1 0 1 1 1 1 3 2 3 4 1 2 1 3 1 5 0 2-1 3-2 3-2 0-4 0-6 0-2-1-5-1-7-2-3-1-5-2-7-3-4-2-7-5-10-8-3-3-6-6-8-10-2-4-4-7-5-11-1-4-2-8-2-11v-29c0-4 1-7 2-10 1-3 3-5 5-6 2-1 5-2 8-1 3 0 7 2 11 4 8 4 13 10 17 17 4 7 6 14 6 22 0 7-2 12-5 14-4 2-10 1-18-4-2-1-4-3-7-4-2-2-5-3-7-5v9c0 4 1 9 4 13 3 4 6 8 11 10zm12-39c0-5-1-9-3-13-2-3-5-6-9-9-4-3-8-3-10-2-2 1-4 4-4 8v12c3 2 5 4 8 6 3 2 5 3 6 4 3 1 5 2 6 2 2 0 3 0 4-1 1-1 1-2 2-3 0-1 0-3 0-4m47 73c3 2 5 3 8 3 2 0 4 1 7 1 0 0 0 0 1 0 0 0 1 0 1 1 1 1 3 2 3 4 1 2 1 3 1 5 0 2-1 3-2 3-2 0-4 0-6 0-2-1-5-1-7-2-3-1-5-2-7-3-4-2-7-5-10-8-3-3-6-6-8-10-2-4-4-7-5-11-1-4-2-8-2-11v-29c0-4 1-7 2-10 1-3 3-5 5-6 2-1 5-2 8-1 3 0 7 2 11 4 8 4 13 10 17 17 4 7 6 14 6 22 0 7-2 12-5 14-4 2-10 1-18-4-2-1-4-3-7-4-2-2-5-3-7-5v9c0 4 1 9 4 13 3 4 6 8 11 10zm12-39c0-5-1-9-3-13-2-3-5-6-9-9-4-3-8-3-10-2-2 1-4 4-4 8v12c3 2 5 4 8 6 3 2 5 3 6 4 3 1 5 2 6 2 2 0 3 0 4-1 1-1 1-2 2-3 0-1 0-3 0-4"/><path d="m4129 5374c3 0 5 0 8-1 3-1 5-2 7-3 2-2 4-4 5-6 1-2 2-5 2-8 0-2 0-4-1-6-1-2-2-4-3-5-1-2-3-3-6-4-2-1-5-1-9-1h-21v35h18zm-18 12v39h19c8 0 14-2 18-5 4-4 6-8 6-14 0-7-2-12-7-15-5-3-10-5-17-5h-19m-5 52c-2 0-4-1-5-2-1-1-2-3-2-5v-96c0-2 1-4 2-5 1-1 3-2 5-2h27c5 0 10 1 13 2 4 2 7 4 10 6 3 3 5 6 6 9 1 3 2 7 2 11 0 3-1 6-2 9-1 3-2 5-4 7-2 2-4 4-6 5-2 1-5 3-8 4 3 1 5 2 8 3 3 1 5 3 8 4 2 2 4 4 6 7 1 3 2 7 2 11 0 4-1 9-2 12-2 4-4 7-7 10-3 3-7 5-11 7-4 2-9 2-14 2h-26zm103-10c3 0 6 0 9-1 2-1 5-2 8-3 0 0 1 0 1 0 0 0 1 0 1 0 2 0 3 1 4 2 1 1 2 2 2 4 0 2-1 3-3 5-2 1-4 2-7 3-3 1-5 1-8 2-3 0-5 1-8 1-4 0-8-1-12-2-4-1-6-3-9-6-2-2-4-5-5-8-1-3-2-7-2-10v-29c0-4 1-7 2-11 1-3 3-6 6-8 2-2 5-4 9-6 4-1 8-2 12-2 9 0 15 2 20 7 4 5 6 11 6 19 0 7-2 13-6 17-4 4-11 6-20 6-2 0-5 0-8 0-3 0-6-1-8-1v9c0 4 1 8 4 11 3 3 7 4 13 4zm13-46c0-5-1-9-4-11-2-2-6-3-11-3-5 0-9 1-12 4-3 3-4 6-4 10v12c3 0 6 1 9 1 3 0 6 0 7 0 3 0 5 0 7-1 2-1 3-2 4-3 1-1 2-3 2-4 0-2 0-3 0-5zm25 4c0-4 1-8 2-11 1-4 3-7 5-9 2-3 5-5 9-6 4-2 8-2 13-2 2 0 4 0 7 0 2 0 5 1 7 2 2 1 4 2 6 3 2 1 2 3 2 5 0 1-1 3-2 4-1 1-2 2-4 2-1 0-2 0-3 0-2-1-4-2-6-3-2-1-4-1-7-1-6 0-11 2-13 5-3 3-4 8-4 13v24c0 6 1 10 4 13 3 3 7 5 13 5 3 0 5 0 7-1 2-1 4-2 6-3 1 0 2 0 3 0 1 0 3 1 4 2 1 1 2 2 2 4 0 2-1 3-2 5-2 1-4 2-6 3-2 1-5 1-7 2-2 0-5 0-7 0-5 0-9-1-13-2-4-2-6-4-9-6-2-3-4-6-5-9-1-4-2-7-2-11v-24zm138 53c-5 0-9-1-13-2-4-1-7-3-9-6-2-3-4-5-6-9-1-3-2-7-2-11v-26c0-4 1-8 2-11 1-3 3-6 6-9 2-3 6-5 9-6 4-1 8-2 13-2 5 0 9 1 13 2 4 1 7 3 9 6 2 3 4 5 6 9 1 3 2 7 2 11v26c0 4-1 8-2 11-1 3-3 6-6 9-2 3-6 5-9 6-4 1-8 2-13 2m0-11c6 0 10-1 13-4 3-3 4-7 4-12v-26c0-5-1-9-4-12-3-3-7-4-13-4-6 0-10 1-13 4-3 3-4 7-4 12v26c0 5 1 9 4 12 3 3 7 4 13 4m74 5c0 2-1 3-2 4-1 1-3 2-4 2-2 0-3-1-4-2-1-1-2-3-2-4v-63h-16c-2 0-3-1-4-2-1-1-2-3-2-4 0-2 1-3 2-4 1-1 2-2 4-2h45c2 0 3 1 4 2 1 1 2 2 2 4 0 2-1 3-2 4-1 1-2 2-4 2h-16v63zm112-61c5 0 9 1 13 2 4 1 7 3 10 6 3 3 5 6 7 10 2 4 2 8 2 13 0 4-1 8-2 13-1 4-3 8-6 12-3 3-6 6-10 9-4 2-9 3-15 3-2 0-4 0-7 0-3 0-7-1-10-2-3-1-6-2-9-4-3-2-4-4-4-6 0-2 1-3 2-4 1-1 2-2 4-2 1 0 2 0 3 1 2 1 5 3 8 4 3 1 6 2 10 2 4 0 8-1 11-2 3-1 5-3 7-6 2-2 3-5 4-8 1-3 1-6 1-9 0-4-1-7-2-9-1-3-3-5-5-6-2-2-4-3-7-4-3-1-5-1-9-1-3 0-5 0-7 1-1 0-1 0-1 1 0 0-1 0-1 0-1 0-2 0-3-1-1-1-1-1-2-2 0-1-1-2-1-3 0-1 0-2 1-3l28-37h-35c-2 0-3-1-4-2-1-1-2-3-2-4 0-2 1-3 2-5 1-1 3-2 4-2h44c2 0 4 1 5 2 1 1 2 3 2 5 0 2-1 3-2 5l-26 34zm66 58c0 3 0 5-1 9-1 3-2 6-3 8-1 3-3 5-4 6-1 2-3 3-4 3-1 0-2 0-2-1-1 0-1-1-1-2 0-1 0-2 1-3 0-1 1-2 2-3 1-1 1-2 2-3 1-1 1-3 2-4-2 0-4-1-6-3-1-2-2-4-2-6 0-2 1-4 2-6 2-2 4-2 6-2 2 0 4 1 6 2 2 2 2 4 2 6zm80-28c0 4-1 9-2 13-1 4-3 8-6 12-3 3-6 6-10 9-4 2-9 3-15 3-2 0-4 0-7 0-3 0-7-1-10-2-3-1-6-2-9-4-3-2-4-4-4-6 0-2 1-3 2-4 1-1 2-2 4-2 1 0 2 0 3 1 2 1 5 2 7 4 3 1 6 2 10 2 4 0 8-1 11-2 3-1 5-3 7-6 2-2 3-5 4-8 1-3 1-6 1-9 0-4-1-7-2-10-1-3-2-5-4-7-2-2-4-3-6-4-2-1-5-1-8-1-2 0-4 0-6 1-2 1-4 1-5 2-2 1-3 2-4 3-1 1-3 2-4 2-2 0-3-1-5-2-1-1-2-3-2-5l2-47c0-2 1-4 2-5 1-1 3-2 5-2h38c2 0 3 0 5 1 2 1 2 2 2 5 0 2-1 4-2 4-2 1-3 1-5 1h-34l-1 34c2-1 5-2 7-3 3-1 5-1 8-1 5 0 9 1 13 2 4 2 7 4 10 7 3 3 5 6 7 11 2 4 2 9 2 14zm120-44c2 0 3 1 4 2 1 1 2 3 2 4v63h4c2 0 3 1 4 2 1 1 2 3 2 4v20c0 2-1 3-2 4-1 1-3 2-4 2-2 0-3-1-4-2-1-1-2-3-2-4v-16h-53v16c0 2-1 3-2 4-1 1-3 2-4 2-2 0-3-1-4-2-1-1-2-3-2-4v-20c0-2 1-3 2-4 1-1 3-2 4-2h3c2-2 4-6 6-12 1-5 2-12 3-19l1-32c0-2 1-4 2-5 1-1 3-1 4-1h36m-32 38c0 7-1 13-2 18-1 5-3 10-5 13h33v-59h-25l-1 28m89 43c-5 0-9-1-13-2-4-1-7-3-9-6-2-3-4-5-6-9-1-3-2-7-2-11v-26c0-4 1-8 2-11 1-3 3-6 6-9 2-3 6-5 9-6 4-1 8-2 13-2 5 0 9 1 13 2 4 1 7 3 9 6 2 3 4 5 6 9 1 3 2 7 2 11v26c0 4-1 8-2 11-1 3-3 6-6 9-2 3-6 5-9 6-4 1-8 2-13 2m0-11c6 0 10-1 13-4 3-3 4-7 4-12v-26c0-5-1-9-4-12-3-3-7-4-13-4-6 0-10 1-13 4-3 3-4 7-4 12v26c0 5 1 9 4 12 3 3 7 4 13 4m156 4c0 2-1 3-2 4-1 1-3 2-4 2h-52c-2 0-3-1-5-2-1-1-2-3-2-5 0-1 0-2 0-3 0-1 0-2 1-3 2-5 5-10 8-14 3-4 7-9 11-12 4-4 8-8 12-12 4-4 8-8 11-12 2-3 4-6 6-9 2-3 3-7 3-11 0-6-2-11-5-15-3-4-8-6-15-6-3 0-6 0-8 1-2 1-5 1-7 2-2 1-4 2-5 3-1 1-3 2-4 2-1 0-3-1-4-2-1-1-2-2-2-4 0-1 0-2 1-3 1-1 2-2 3-3 4-3 8-4 13-6 4-1 9-2 14-2 5 0 10 1 13 2 4 2 7 4 10 6 3 3 5 6 6 10 1 4 2 8 2 12 0 7-1 12-3 17-2 5-5 9-8 12-3 4-7 7-10 11-4 3-7 7-10 10-3 3-7 7-9 11-3 4-5 8-7 12h43c2 0 3 1 4 2 1 1 2 3 2 4zm71 1c0 2-1 3-2 4-1 1-3 2-4 2-2 0-3-1-4-2-1-1-2-3-2-4v-19h-39c-2 0-3-1-5-2-1-1-2-3-2-5 0 0 0-1 0-2 0-1 1-2 1-3l30-76c1-1 1-2 2-3 1-1 2-1 3-1 1 0 3 1 4 2 1 1 2 3 2 4 0 0 0 1 0 1 0 0 0 1 0 1l-28 70h31v-31c0-2 1-3 2-4 1-1 3-2 4-2 2 0 3 1 4 2 1 1 2 3 2 4v31h7c2 0 3 1 4 2 1 1 2 3 2 4 0 2-1 3-2 4-1 1-2 2-4 2h-7v19zm101 0c0 2-1 3-2 4-1 1-3 2-4 2-2 0-3-1-4-2-1-1-2-3-2-4v-63h-16c-2 0-3-1-4-2-1-1-2-3-2-4 0-2 1-3 2-4 1-1 2-2 4-2h45c2 0 3 1 4 2 1 1 2 2 2 4 0 2-1 3-2 4-1 1-2 2-4 2h-16v63zm61 6c-5 0-9-1-13-2-4-1-7-3-9-6-2-3-4-5-6-9-1-3-2-7-2-11v-26c0-4 1-8 2-11 1-3 3-6 6-9 2-3 6-5 9-6 4-1 8-2 13-2 5 0 9 1 13 2 4 1 7 3 9 6 2 3 4 5 6 9 1 3 2 7 2 11v26c0 4-1 8-2 11-1 3-3 6-6 9-2 3-6 5-9 6-4 1-8 2-13 2m0-11c6 0 10-1 13-4 3-3 4-7 4-12v-26c0-5-1-9-4-12-3-3-7-4-13-4-6 0-10 1-13 4-3 3-4 7-4 12v26c0 5 1 9 4 12 3 3 7 4 13 4m61 5c0 2-1 3-2 4-1 1-3 2-4 2-2 0-3-1-4-2-1-1-2-3-2-4v-69c0-2 1-3 2-4 1-1 3-2 4-2 2 0 3 1 4 2 1 1 2 3 2 4v28h33v-28c0-2 1-3 2-4 1-1 3-2 4-2 2 0 3 1 4 2 1 1 2 3 2 4v69c0 2-1 3-2 4-1 1-3 2-4 2-2 0-3-1-4-2-1-1-2-3-2-4v-31h-33v31m81 0c0 2-1 3-2 4-1 1-3 2-4 2-2 0-3-1-4-2-1-1-2-3-2-4v-69c0-2 1-3 2-4 1-1 3-2 4-2 2 0 3 1 4 2 1 1 2 3 2 4v28h33v-28c0-2 1-3 2-4 1-1 3-2 4-2 2 0 3 1 4 2 1 1 2 3 2 4v69c0 2-1 3-2 4-1 1-3 2-4 2-2 0-3-1-4-2-1-1-2-3-2-4v-31h-33v31"/></g><path d="m5189 5060l-187-608h-101v-56c0-29-12-56-31-75-19-19-46-31-75-31-29 0-56 12-75 31-19 19-31 46-31 75v56h-123l-187 608 66 118h679l66-118zm-338-608h-114v-56c0-16 6-30 17-40 10-10 25-17 40-17 16 0 30 6 40 17 10 10 17 25 17 40v56" fill="url(#1)"/><g fill-rule="nonzero"><path d="m4810 5013c0 9-3 17-9 23-6 6-14 9-23 9-9 0-17-3-23-9-6-6-9-14-9-23v-325h-85c-8 0-15-3-21-9-6-6-9-13-9-22 0-9 3-16 9-22 6-6 13-9 21-9h232c8 0 15 3 21 9 6 6 9 13 9 22 0 9-3 16-9 22-6 6-13 9-21 9h-85v325z" fill="#a2aebf"/><path d="m4822 5023c0 9-3 17-9 23-6 6-14 9-23 9-9 0-17-3-23-9-6-6-9-14-9-23v-325h-85c-8 0-15-3-21-9-6-6-9-13-9-22 0-9 3-16 9-22 6-6 13-9 21-9h232c8 0 15 3 21 9 6 6 9 13 9 22 0 9-3 16-9 22-6 6-13 9-21 9h-85v325z" fill="#fff"/></g></svg>