<svg xmlns="http://www.w3.org/2000/svg" width="51" height="66" viewBox="0 0 1439 1863" shape-rendering="geometricPrecision" image-rendering="optimizeQuality" fill-rule="evenodd" clip-rule="evenodd"><g fill="#fff"><path d="m1143 724l1 4c-43 16-80 32-113 49-22 5-27-12-20-39l15-61 31-12c-12 47-19 76-19 76-3 13-1 23 7 20 31-16 68-29 98-37"/><path d="m1008 760l3 7c-18 8-34 16-49 23-22 5-27-12-20-39l15-59 31-13c-12 47-19 76-19 76-3 13-1 23 7 20 11-5 22-10 33-15z"/><path d="m934 701l56-22-5 13-50 14z"/><path d="m583 852l2 6c-11 10-24 16-38 19-22 5-27-12-20-39l15-61 30-12c-12 47-19 76-19 76-6 27 14 19 29 10z"/><path d="m489 800l56-23-5 13-50 15z"/><path d="m522 789l19-2 2 5m-21-4l21 4c-35 68-60 159-120 191-40 21-91 11-70-45 0 0 8-5 24-15 8 0 13 2 16 7l-14 8c-8 18 6 40 28 37 54-12 84-126 115-186"/><path d="m605 866l26-106 30-12c-12 47-25 101-25 101l-31 18z"/><path d="m606 769l56-22-5 13-50 15z"/><path d="m639 817l6-21c18 4 36-7 56-18 0 4-1 6-1 6-18 14-43 26-62 34z"/><path d="m670 798c-8 32 10 52 41 46 32-7 61-40 69-69 6-23-2-40-18-45-7-3-16-2-24-1-31 7-60 38-68 69m29-7c5-17 18-43 39-46 19-3 15 28 13 38-5 17-18 42-39 46-19 4-16-27-13-38"/><path d="m915 749l-39 47-69 193c-15 45-45 75-79 81l1 2c51-1 85-36 107-93 54-155 83-241 79-230"/><path d="m918 876l31-13c3-12-14-15-27-17-12-2-26 0-40 3-75 16-167 77-187 155-8 30-4 63 31 63 16-3 31-10 39-17-110 7-17-162 111-186 22-4 46 1 42 12"/><path d="m806 769c-8 32 10 52 41 46 32-7 61-40 69-69 6-23-2-40-18-45-7-3-16-2-24-1-31 7-60 38-68 69m29-7c5-17 18-43 39-46 19-3 15 28 13 38-5 17-18 42-39 46-19 4-16-27-13-38"/><path d="m66 1277l55-22-5 13-49 15z"/><path d="m84 1277l37-22c10 3 16 15 20 46 2 28 15 43 22 44 12 0 25-7 31-14l2 6c-19 15-42 24-60 21-34-9-13-87-52-82z"/><path d="m194 1247l-2-6c-21 3-39 15-58 42-21 40-38 69-54 87-21 12-42-1-44-29l-32 13c7 31 44 50 69 36 24-15 46-45 68-91 18-34 36-51 53-52"/><path d="m216 1291c-8 32 10 52 41 46 32-7 61-40 69-69 6-23-2-40-18-45-7-3-16-2-24-1-31 7-60 38-68 69m29-7c5-17 18-43 39-46 19-3 15 28 13 38-5 17-18 42-39 46-19 4-16-27-13-38"/><path d="m492 1233c-8 32 10 52 41 46 32-7 61-40 69-69 6-23-2-40-18-45-7-3-16-2-24-1-31 7-60 38-68 69m29-7c5-17 18-43 39-46 19-3 15 28 13 38-5 17-18 42-39 46-19 4-16-27-13-38"/><path d="m370 1213l32-21c-32 124-58 277-190 295 76-32 128-133 158-275z"/><path d="m348 1214l54-22-3 13-50 14z"/><path d="m360 1301c9 6 21 10 38 7 32-7 62-39 69-68 6-23-2-40-18-45-7-3-16-2-24-1-31 7-57 38-65 69 10 0 17-2 26-7 5-17 18-43 39-46 19-3 15 28 13 38-5 17-18 42-39 46-12 2-21-1-19-14-11 5-20 22-20 22z"/><path d="m1070 1074l4-14c-27 4-85 13-94 46-7 27 40 23 57 14-2-7-3-9-3-9-15 4-32 6-31-6 2-17 48-30 68-31z"/><path d="m1028 1131c-6 23-3 38 11 40 3 0 6 0 9-1 1-1 3-1 4-2 15-8 31-15 48-22l-12-3c-9 4-18 8-26 12-7 3-10-7-7-20l19-75-30 11-15 61z"/><path d="m951 1205l-14 9c-1 12 13 17 20 5 15-24 28-53 45-93 15-1 22-2 22-2-14 33-26 59-36 77-5 10-11 20-18 29-22 31-62 31-59-17 16-10 24-15 24-15 8 0 13 2 16 7"/><path d="m741 1217l2 6c-11 10-24 16-38 19-22 5-27-12-20-39l15-61 30-12c-12 47-19 76-19 76-6 27 14 19 29 10z"/><path d="m618 1166l56-23-5 13-50 15z"/><path d="m683 1230l2 6c-11 10-24 16-38 19-22 5-27-12-20-39l13-52 33-21c-12 47-19 76-19 76-6 27 14 19 29 10z"/><path d="m820 1196l5 6c-22 10-43 19-62 29-22 5-27-12-20-39l15-61 30-12c-12 47-19 76-19 76-3 13-1 23 7 20 14-7 29-14 44-19"/><path d="m900 1160c-6 23-3 38 11 40 3 0 6 0 9-1 1-1 3-1 4-2 15-8 31-15 48-22l-2-5c-13 4-29 11-37 14-7 3-10-7-7-20l19-76-31 12-15 61z"/><path d="m822 1165c-8 32 10 52 41 46 32-7 61-40 69-69 6-23-2-40-18-45-7-3-16-2-24-1-31 7-60 38-68 69m29-7c5-17 18-43 39-46 19-3 15 28 13 38-5 17-18 42-39 46-19 4-16-27-13-38"/><path d="m832 419c27-5 58-22 65-48 11-40-20-49-49-26l10-38-31 13-15 59c-7 27-1 44 21 39zm13-16c-7 3-10-7-7-20l8-30c24-13 30 5 24 26-3 13-12 20-25 24"/><path d="m803 328l54-22-3 13-50 14z"/><path d="m914 358c-6 23-3 38 11 40 6 1 8 0 13-3 15-8 31-15 48-22l-12-3c-9 4-18 8-26 12-7 3-10-7-7-20l19-76-30 12-15 61z"/><path d="m401 455c-8 32 10 52 41 46 32-7 61-40 69-69 6-23-2-40-18-45-7-3-16-2-24-1-31 7-60 38-68 69m29-7c5-17 18-43 39-46 19-3 15 28 13 38-5 17-18 42-39 46-19 4-16-27-13-38"/><path d="m663 351l54-22-3 13-50 14z"/><path d="m685 350l32-21c-42 163-65 268-189 301l-1-5 10-5c69-35 109-117 148-270"/><path d="m675 437c9 6 21 10 38 7 32-7 62-39 69-68 6-23-2-40-18-45-7-3-16-2-24-1-31 7-57 38-65 69 10 0 17-2 26-7 5-17 18-43 39-46 19-3 15 28 13 38-5 17-18 42-39 46-12 2-21-1-19-14-11 5-20 22-20 22z"/><path d="m376 463l-39 47-69 193c-15 45-45 75-79 81l1 2c51-1 85-36 107-93 54-155 83-241 79-230"/><path d="m378 589l31-13c3-12-14-15-27-17-12-2-26 0-40 3-75 16-167 77-187 155-8 30-4 63 31 63 16-3 31-10 39-17-110 7-17-162 111-186 22-4 46 1 42 12"/><path d="m267 483c-8 32 10 52 41 46 32-7 61-40 69-69 6-23-2-40-18-45-7-3-16-2-24-1-31 7-60 38-68 69m29-7c5-17 18-43 39-46 19-3 15 28 13 38-5 17-18 42-39 46-19 4-16-27-13-38"/><path d="m540 254c3-14 17-29 34-31 51-3 67-9 108-32l-16 31c-29 17-58 13-85 16-7 1-12 7-14 15l-12 46c-5 20 93 45 90 88l-29-5c-4-35-94-61-89-78l13-51z"/><path d="m651 258l31-12 17-70-30 12z"/><path d="m533 427c-8 32 10 52 41 46 32-7 61-40 69-69 6-23-2-40-18-45-7-3-16-2-24-1-31 7-60 38-68 69m29-7c5-17 18-43 39-46 19-3 15 28 13 38-5 17-18 42-39 46-19 4-16-27-13-38"/><path d="m1030 328c29 1 86-35 73-61-4-7-14-11-32-7-31 7-60 38-68 69-8 32 10 52 41 46 11-2 19-7 30-14 14-10 31-18 53-26l-1-6c-30 6-63 28-81 33-16 3-17-19-15-33zm47-52c11 8-7 40-46 45 5-17 18-42 39-46 3 0 5 0 7 1"/><path d="m1103 1467l4-14c-27 4-85 13-94 46-7 27 40 23 57 14-2-7-3-9-3-9-15 4-32 6-31-6 2-17 48-30 68-31z"/><path d="m1061 1524c-6 23-3 38 11 40 3 0 6 0 9-1 1-1 3-1 4-2 15-8 31-15 48-22l-12-3c-9 4-18 8-26 12-7 3-10-7-7-20l19-75-30 11-15 61z"/><path d="m984 1598l-14 9c-1 12 13 17 20 5 15-24 28-53 45-93 15-1 22-2 22-2-14 33-26 59-36 77-5 10-11 20-18 29-22 31-62 31-59-17 16-10 24-15 24-15 8 0 13 2 16 7"/><path d="m659 1558l55-22-4 13-50 14z"/><path d="m691 1548l19-2 2 5m-21-4l21 4c-35 68-60 159-120 191-40 21-91 11-70-45 0 0 8-5 24-15 8 0 13 2 16 7l-14 8c-8 18 6 40 28 37 54-12 84-126 115-186"/><path d="m730 1621c3 7-5 14-13 15-26 6-24-21-20-39l15-61 30-12-19 76c-3 13-1 23 7 20z"/><path d="m725 1621l-5 15c32-8 61-82 79-122l-24 9c-17 67-44 95-51 97z"/><path d="m839 1584c8 3 12 4 12 4-19 4-43 29-71 35-22 5-27-12-20-39l15-61 30-12c-12 47-19 76-19 76-4 16 2 20 11 18 16-3 26-16 41-21z"/><path d="m426 1618l-2-6c20-20 73-54 64-14-6 26-48 56-67 65l-2-6c5-4 32-22 41-40 7-12 7-21 0-22-8 0-28 16-35 21z"/><path d="m421 1664l25-16c42-7 50 41 42 75-16 60-69 108-132 114 2-3 3-4 3-4 50-16 87-51 102-112 10-41-3-58-40-56z"/><path d="m334 1699c9 0 12 2 16 7-48 14-59 110 28 117-18 6-28 10-28 10-93-5-68-125-16-134"/><path d="m867 1514l56-22-5 13-50 15z"/><path d="m900 1504l19-2 2 5m-21-4l21 4c-35 68-60 159-120 191-40 21-91 11-70-45 0 0 8-5 24-15 8 0 13 2 16 7l-14 8c-8 18 6 40 28 37 54-12 84-126 115-186"/><path d="m984 1554c8 3 12 4 12 4-19 4-43 29-71 35-22 5-27-12-20-39l15-61 30-12c-12 47-19 76-19 76-4 16 2 20 11 18 16-3 26-16 41-21z"/><path d="m563 1658c-16 3-17-19-15-33 29 1 86-35 73-61-4-7-14-11-32-7-31 7-60 38-68 69-8 32 10 52 41 46 24-5 44-24 61-39l-7-4c-21 17-39 27-53 30zm33-85c11 8-7 40-46 45 5-17 18-42 39-46 3 0 5 0 7 1"/><path d="m1347 1155c30-16 127-117 72-254-6 24-21 41-45 51-29 12-41 38-36 83-19-21-24-45-16-78 30-25 153-142 98-278-6 24-21 41-45 51-29 12-41 38-36 83-19-20-24-44-16-76v1c30-25 153-142 98-278-6 24-21 41-45 51-29 12-41 38-36 83-19-21-24-45-16-78 30-25 153-142 98-278-6 24-21 41-45 51-29 12-41 38-36 83-19-21-24-45-16-78 2-8 3-15 4-21 67-24 108-161 26-242 1 19-7 34-23 46-28 20-43 60-7 96 16 27 23 44 6 67 0-33-13-52-37-62-25-9-40-26-45-51-56 136 67 253 98 278 8 33 3 57-16 78 5-45-7-71-36-83-25-9-40-26-45-51-56 136 67 253 98 278 8 33 3 58-16 78 6-47-6-73-36-86-25-9-40-26-45-51-56 136 67 253 98 278 8 33 3 57-16 78 5-45-7-71-36-83-25-10-40-26-45-51-46 113 31 213 76 258l1 434 25 25v-352z"/></g></svg>