<?xml version="1.0" encoding="UTF-8"?><!DOCTYPE svg PUBLIC "-//W3C//DTD SVG 1.1//EN"
        "http://www.w3.org/Graphics/SVG/1.1/DTD/svg11.dtd">
<svg xmlns="http://www.w3.org/2000/svg">
    <symbol id="icon_book" viewBox="0 0 21 37">
        <g fill="none" stroke="#fff">
            <g stroke-linejoin="round" stroke-linecap="round">
                <path d="m3 9l12-7 6 3v21l-18 10z"/>
                <path d="m15 2l6 3-6 3c0 0 0-7 0-5z"/>
                <path d="m18 10l-12 7"/>
                <path d="m17 14l-12 7"/>
                <path d="m17 17l-12 7"/>
                <path d="m17 21l-12 7"/>
                <path d="m3 36l-2-1v-28l12-6 1 1"/>
            </g>
            <path d="m1 7l2 2"/>
        </g>
    </symbol>
    <symbol id="icon_close" viewBox="0 0 254 254">
        <path d="m19 251c-4 4-12 4-16 0-4-4-4-12 0-16l108-108-108-108c-4-4-4-12 0-16 4-4 12-4 16 0l108 108 108-108c4-4 12-4 16 0 4 4 4 12 0 16l-108 108 108 108c4 4 4 12 0 16-4 4-12 4-16 0l-108-108-108 108"
              fill-rule="nonzero"/>
    </symbol>
    <symbol id="icon_contact_address" viewBox="0 0 254 254">
        <g fill="#a2aebf" fill-rule="nonzero">
            <path d="m127 218c25-31 64-83 64-122 0-35-28-63-64-63-35 0-64 28-64 63 0 40 38 92 64 122m0-165c23 0 42 19 42 42 0 27-26 67-42 89-17-22-42-62-42-89 0-23 19-42 42-42"/>
            <path d="m148 95c0-12-10-21-21-21-12 0-21 10-21 21 0 12 9 21 21 21 12 0 21-10 21-21"/>
            <path d="m85 243h84v-21h-84z"/>
        </g>
    </symbol>
    <symbol id="icon_contact_mail" viewBox="0 0 254 254">
        <g fill="#a2aebf" fill-rule="nonzero">
            <path d="m212 116h-169c-12 0-21 10-21 21v95c0 12 9 21 21 21h169c12 0 21-10 21-21v-95c0-12-10-21-21-21m-20 21l-65 40-65-40h129zm-149 95v-83l79 49c2 1 4 2 6 2 2 0 4-1 6-2l79-49v83h-169z"/>
            <path d="m116 55v-49h22v49l24-25 15 15-50 50-50-50 15-15z"/>
        </g>
    </symbol>
    <symbol id="icon_contact_phones" viewBox="0 0 254 254">
        <g fill="#a2aebf" fill-rule="nonzero">
            <path d="m177 94l-15-15-24 24v-88h-22v88l-24-24-15 15 50 47z"/>
            <path d="m165 147l-21 20h-34l-21-20h-68v81h212v-81h-68m47 61h-169v-41h38l21 20h51l21-20h38v41"/>
        </g>
    </symbol>
    <symbol id="icon_search" viewBox="0 0 254 254">
        <path d="m110 188c22 0 41-9 56-23 14-14 23-34 23-56 0-22-9-41-23-56-14-14-34-23-56-23-22 0-41 9-56 23-14 14-23 34-23 56 0 22 9 41 23 56 14 14 34 23 56 23m139 34c7 7 7 19 0 26-7 7-19 7-26 0l-49-49c-18 13-40 20-64 20-30 0-58-12-78-32-20-20-32-47-32-78 0-30 12-58 32-78 20-20 47-32 78-32 30 0 58 12 78 32 20 20 32 47 32 78 0 24-8 46-20 64l49 49"
              fill="#2644bc" fill-rule="nonzero"/>
    </symbol>
</svg>