<?xml version="1.0" encoding="UTF-8"?><!DOCTYPE svg PUBLIC "-//W3C//DTD SVG 1.1//EN"
        "http://www.w3.org/Graphics/SVG/1.1/DTD/svg11.dtd">
<svg xmlns="http://www.w3.org/2000/svg">
    <symbol id="icon_bigView" viewBox="0 0 254 254">
        <g>
            <path d="m0 0h111.12v60.33h-111.12z"/>
            <path d="m143 0h111.12v60.33h-111.12z"/>
            <path d="m0 97h111.12v60.33h-111.12z"/>
            <path d="m143 97h111.12v60.33h-111.12z"/>
            <path d="m0 194h111.12v60.33h-111.12z"/>
            <path d="m143 194h111.12v60.33h-111.12z"/>
        </g>
    </symbol>
    <symbol id="icon_book" viewBox="0 0 21 37">
        <g fill="none" stroke="#fff">
            <g stroke-linejoin="round" stroke-linecap="round">
                <path d="m3 9l12-7 6 3v21l-18 10z"/>
                <path d="m15 2l6 3-6 3c0 0 0-7 0-5z"/>
                <path d="m18 10l-12 7"/>
                <path d="m17 14l-12 7"/>
                <path d="m17 17l-12 7"/>
                <path d="m17 21l-12 7"/>
                <path d="m3 36l-2-1v-28l12-6 1 1"/>
            </g>
            <path d="m1 7l2 2"/>
        </g>
    </symbol>
    <symbol id="icon_check" viewBox="0 0 254 254">
        <path d="m3 93c-5-10-2-22 8-27 10-5 22-2 27 8l67 121 113-185c6-9 18-12 27-7 9 6 12 18 7 27l-130 214c-2 3-4 5-7 7-10 5-22 2-27-8l-84-151z"
              fill="#2644bc" fill-rule="nonzero"/>
    </symbol>
    <symbol id="icon_clinch" viewBox="0 0 2000 3171">
        <path d="m1901 1770v-1040c0-541-429-793-901-520-440 253-921 651-900 1213v1040c0 533 510 746 900 520 215-124 301-317 301-520v-1387c0-188-159-255-335-153-170 98-266 224-266 481v1059"
              fill="none" stroke="#2644bc" stroke-linejoin="round" stroke-linecap="round" stroke-width="198"/>
    </symbol>
    <symbol id="icon_close" viewBox="0 0 254 254">
        <path d="m19 251c-4 4-12 4-16 0-4-4-4-12 0-16l108-108-108-108c-4-4-4-12 0-16 4-4 12-4 16 0l108 108 108-108c4-4 12-4 16 0 4 4 4 12 0 16l-108 108 108 108c4 4 4 12 0 16-4 4-12 4-16 0l-108-108-108 108"
              fill-rule="nonzero"/>
    </symbol>
    <symbol id="icon_contact_address" viewBox="0 0 254 254">
        <g fill="#a2aebf" fill-rule="nonzero">
            <path d="m127 218c25-31 64-83 64-122 0-35-28-63-64-63-35 0-64 28-64 63 0 40 38 92 64 122m0-165c23 0 42 19 42 42 0 27-26 67-42 89-17-22-42-62-42-89 0-23 19-42 42-42"/>
            <path d="m148 95c0-12-10-21-21-21-12 0-21 10-21 21 0 12 9 21 21 21 12 0 21-10 21-21"/>
            <path d="m85 243h84v-21h-84z"/>
        </g>
    </symbol>
    <symbol id="icon_contact_mail" viewBox="0 0 254 254">
        <g fill="#a2aebf" fill-rule="nonzero">
            <path d="m212 116h-169c-12 0-21 10-21 21v95c0 12 9 21 21 21h169c12 0 21-10 21-21v-95c0-12-10-21-21-21m-20 21l-65 40-65-40h129zm-149 95v-83l79 49c2 1 4 2 6 2 2 0 4-1 6-2l79-49v83h-169z"/>
            <path d="m116 55v-49h22v49l24-25 15 15-50 50-50-50 15-15z"/>
        </g>
    </symbol>
    <symbol id="icon_contact_phones" viewBox="0 0 254 254">
        <g fill="#a2aebf" fill-rule="nonzero">
            <path d="m177 94l-15-15-24 24v-88h-22v88l-24-24-15 15 50 47z"/>
            <path d="m165 147l-21 20h-34l-21-20h-68v81h212v-81h-68m47 61h-169v-41h38l21 20h51l21-20h38v41"/>
        </g>
    </symbol>
    <symbol id="icon_longArrow" viewBox="0 0 356 254">
        <path d="m74 181c3 3 3 9 0 12-3 3-9 3-12 0l-60-60c0 0-1-1-1-1 0-1-1-1-1-2 0 0 0-1 0-1 0 0 0-1 0-1 0 0 0-1 0-1 0 0 0-1 0-1 0-1 1-1 1-2 0 0 1-1 1-1l60-60c3-3 9-3 12 0 3 3 3 9 0 12l-45 45h318c5 0 8 4 8 8 0 5-4 8-8 8h-318l45 45"
              fill="#2644bc" fill-rule="nonzero"/>
    </symbol>
    <symbol id="icon_place" viewBox="0 0 254 254">
        <path d="m127 0c-48 0-87 39-87 87 0 54 52 126 87 167 35-42 87-113 87-167 0-39-26-73-62-83-8-2-16-4-25-4m-38 80c0-21 17-38 38-38 21 0 38 17 38 38 0 21-17 38-38 38-21 0-38-17-38-38"
              fill="#2644bc"/>
    </symbol>
    <symbol id="icon_price" viewBox="0 0 2500 4333">
        <g fill="none" stroke="#fff" stroke-linejoin="round" stroke-linecap="round">
            <g stroke-width="101">
                <path d="m246 816l293 169"/>
                <path d="m51 2384l293 169"/>
                <path d="m51 3084l293 169"/>
                <g fill-rule="nonzero">
                    <path d="m1766 2094l292 169m-1519 2019l-293-169 1-607m80 46l-276-159v-309l195-113v-96m97 56l-292-169v-378l195-113v-1455l894-516c256-148 450-230 581-245 62-9 118-4 168 15m-964 1810l190-110c86-50 170-106 249-168 79-61 148-130 208-206 59-76 106-160 141-252 35-92 53-194 53-306 0-49-4-93-13-130"/>
                    <path d="m918 2599v323l1141-659v309l-1141 658v834l-379 218v-833l-196 113v-309l196-113v-322l-196 113v-378l196-113v-1455l894-516c256-148 449-230 580-245 133-18 238 25 318 129 78 105 118 248 118 429 0 182-29 351-88 505-58 153-135 294-232 420-97 127-207 241-332 342-126 101-255 190-389 267l-490 283zm490-660c86-50 169-106 248-168 80-61 148-129 208-206 60-76 107-160 142-252 35-91 53-194 53-306 0-97-17-171-48-220-32-49-76-79-130-90-55-11-120-5-193 18-74 23-154 59-240 109l-530 306v1092l490-283z"/>
                </g>
            </g>
            <path stroke-width="91" d="m1889 70l193 111 106 61"/>
        </g>
    </symbol>
    <symbol id="icon_search" viewBox="0 0 254 254">
        <path d="m110 188c22 0 41-9 56-23 14-14 23-34 23-56 0-22-9-41-23-56-14-14-34-23-56-23-22 0-41 9-56 23-14 14-23 34-23 56 0 22 9 41 23 56 14 14 34 23 56 23m139 34c7 7 7 19 0 26-7 7-19 7-26 0l-49-49c-18 13-40 20-64 20-30 0-58-12-78-32-20-20-32-47-32-78 0-30 12-58 32-78 20-20 47-32 78-32 30 0 58 12 78 32 20 20 32 47 32 78 0 24-8 46-20 64l49 49"
              fill="#2644bc" fill-rule="nonzero"/>
    </symbol>
    <symbol id="icon_sendform" viewBox="0 0 339 339">
        <path fill="#fff" d="m7 153l325-117-92 241-79-42-58 67 12-91 77-62-98 51z"/>
    </symbol>
    <symbol id="icon_smallView" viewBox="0 0 254 254">
        <g>
            <path d="m0 0h46.18v46.18h-46.18z"/>
            <path d="m0 69h46.18v46.18h-46.18z"/>
            <path d="m0 139h46.18v46.18h-46.18z"/>
            <path d="m0 208h46.18v46.18h-46.18z"/>
            <path d="m69 0h46.18v46.18h-46.18z"/>
            <path d="m69 69h46.18v46.18h-46.18z"/>
            <path d="m69 139h46.18v46.18h-46.18z"/>
            <path d="m69 208h46.18v46.18h-46.18z"/>
            <path d="m139 0h46.18v46.18h-46.18z"/>
            <path d="m208 0h46.18v46.18h-46.18z"/>
            <path d="m139 69h46.18v46.18h-46.18z"/>
            <path d="m208 69h46.18v46.18h-46.18z"/>
            <path d="m139 139h46.18v46.18h-46.18z"/>
            <path d="m139 208h46.18v46.18h-46.18z"/>
            <path d="m208 139h46.18v46.18h-46.18z"/>
            <path d="m208 208h46.18v46.18h-46.18z"/>
        </g>
    </symbol>
</svg>