<svg xmlns="http://www.w3.org/2000/svg" viewBox="0 0 25.71 20.1"><title>icon_quote-close</title><path d="M779.76,673.58c3.85-1.91,6.9-4.58,6.9-8.13,0-2.6-1.57-3.94-3.57-4.59a1.35,1.35,0,0,1-.9-1.45,3.61,3.61,0,0,1,3.55-3.46c3-.07,6.13,2.88,6.15,7.3,0.08,6.84-6.4,10.89-11.13,12.47Zm-13.59.33C770,672,773,669.33,773,665.78a4.51,4.51,0,0,0-3.49-4.59,1.31,1.31,0,0,1-1-1.45,3.67,3.67,0,0,1,3.55-3.55c3-.07,6.13,3,6.15,7.38,0.08,6.84-6.4,10.89-11.13,12.47Z" transform="translate(-766.17 -655.95)" fill="#f7f7f7"/></svg>