<svg xmlns="http://www.w3.org/2000/svg" viewBox="0 0 14.67 14.63"><path d="M6192.21,693.34a0.51,0.51,0,0,0-.3,0c-1.1.43-1.79,2-1.95,3.06-0.51,3.49,2.25,6.51,4.79,8.5,2.25,1.77,6.58,4.67,9.13,1.87a2.1,2.1,0,0,0,.69-1.36,3,3,0,0,0-1.46-1.93c-0.47-.35-1.44-1.3-2-1.28a2.17,2.17,0,0,0-1.24.93l-0.61.61a6.56,6.56,0,0,1-1.54-.85,10.36,10.36,0,0,1-1.48-1.16,9.57,9.57,0,0,1-1.2-1.38,7.06,7.06,0,0,1-.85-1.48s0.71-.77.91-1.08a1.54,1.54,0,0,0,.26-1.93,4.54,4.54,0,0,0-.65-0.75,12.35,12.35,0,0,0-1.34-1.18A2.86,2.86,0,0,0,6192.21,693.34Z" transform="translate(-6189.9 -693.33)" fill="#184e7d"/></svg>