<svg xmlns="http://www.w3.org/2000/svg" viewBox="0 0 239.8 263.12"><g opacity="0.07"><path d="M8764.13,3007.26s-36.93-108.75-43.32-113.68c-3.89-3-8.19.88-8.19,0.88L8676,2920.64c-1.43.74-1.06,3.11-1.06,3.11v19h-55.63v-19s0.37-2.37-1.06-3.11l-36.62-26.19s-4.3-3.89-8.19-.88c-6.39,4.94-43.32,113.68-43.32,113.68s-8.19,18.1,3,18.63h82.55s4.4,0.32,4.4-7.6v-52.71h54.15v52.71c0,7.92,4.4,7.6,4.4,7.6h82.55C8772.32,3025.36,8764.13,3007.26,8764.13,3007.26Z" transform="translate(-8527.23 -2762.77)" fill="#a5a5a5"/><path d="M8703.56,2830.78s-26.69-67.2-54.93-68c-0.51,0-1,.12-1.5.15s-1-.16-1.5-0.15c-28.24.81-54.93,68-54.93,68s-9.31,20-11,38.91c0,0,27.8,30,56.6,38a101.51,101.51,0,0,0,21.75,0c28.8-8,56.6-38,56.6-38C8712.87,2850.81,8703.56,2830.78,8703.56,2830.78ZM8647.13,2883c-13.75,0-24.9-11.8-24.9-26.36s11.15-26.36,24.9-26.36,24.9,11.8,24.9,26.36S8660.88,2883,8647.13,2883Z" transform="translate(-8527.23 -2762.77)" fill="#a5a5a5"/></g></svg>