<svg xmlns="http://www.w3.org/2000/svg" xmlns:xlink="http://www.w3.org/1999/xlink" viewBox="0 0 155.67 58.7"><defs><clipPath id="a"><path d="M6817.71,721.32S6809,697.06,6807.45,696a1.66,1.66,0,0,0-1.94.2l-8.67,5.84a0.7,0.7,0,0,0-.25.69v4.24h-13.17v-4.24a0.7,0.7,0,0,0-.25-0.69l-8.67-5.84a1.66,1.66,0,0,0-1.94-.2c-1.51,1.1-10.26,25.36-10.26,25.36s-1.94,4,.71,4.16h19.55s1,0.07,1-1.7V712h12.82v11.76c0,1.77,1,1.7,1,1.7H6817C6819.65,725.36,6817.71,721.32,6817.71,721.32Z" fill="#fff"/></clipPath><clipPath id="b" transform="translate(-6761.61 -666.78)"><path d="M6803.36,681.95s-6.32-15-13-15.17c-0.12,0-.23,0-0.36,0s-0.23,0-.35,0c-6.69.18-13,15.17-13,15.17a29.63,29.63,0,0,0-2.62,8.68s6.58,6.69,13.4,8.47a25.51,25.51,0,0,0,5.15,0c6.82-1.78,13.4-8.47,13.4-8.47A29.64,29.64,0,0,0,6803.36,681.95ZM6790,693.59a5.88,5.88,0,1,1,5.9-5.88A5.89,5.89,0,0,1,6790,693.59Z" fill="#fff" clip-path="url(#a)"/></clipPath></defs><title>logo_bg</title><g opacity="0.15"><path d="M6817.71,721.32S6809,697.06,6807.45,696a1.66,1.66,0,0,0-1.94.2l-8.67,5.84a0.7,0.7,0,0,0-.25.69v4.24h-13.17v-4.24a0.7,0.7,0,0,0-.25-0.69l-8.67-5.84a1.66,1.66,0,0,0-1.94-.2c-1.51,1.1-10.26,25.36-10.26,25.36s-1.94,4,.71,4.16h19.55s1,0.07,1-1.7V712h12.82v11.76c0,1.77,1,1.7,1,1.7H6817C6819.65,725.36,6817.71,721.32,6817.71,721.32Z" transform="translate(-6761.61 -666.78)" fill="#fff"/><path d="M6803.36,681.95s-6.32-15-13-15.17c-0.12,0-.23,0-0.36,0s-0.23,0-.35,0c-6.69.18-13,15.17-13,15.17a29.63,29.63,0,0,0-2.62,8.68s6.58,6.69,13.4,8.47a25.51,25.51,0,0,0,5.15,0c6.82-1.78,13.4-8.47,13.4-8.47A29.64,29.64,0,0,0,6803.36,681.95ZM6790,693.59a5.88,5.88,0,1,1,5.9-5.88A5.89,5.89,0,0,1,6790,693.59Z" transform="translate(-6761.61 -666.78)" fill="#fff"/><g clip-path="url(#b)"><rect x="15.67" y="10.55" width="140" height="40" rx="3.45" ry="3.45" fill="#f5a319"/></g></g></svg>