<?xml version="1.0" encoding="UTF-8"?><!DOCTYPE svg PUBLIC "-//W3C//DTD SVG 1.1//EN" "http://www.w3.org/Graphics/SVG/1.1/DTD/svg11.dtd"><svg xmlns="http://www.w3.org/2000/svg"><symbol id="icon_logo_full" viewBox="0 0 151.06 44.52"><path d="M6014.3,707.75s-4.64-12.87-5.44-13.46a0.88,0.88,0,0,0-1,.1l-4.6,3.1a0.37,0.37,0,0,0-.13.37v2.25h-7v-2.25a0.37,0.37,0,0,0-.13-0.37l-4.6-3.1a0.88,0.88,0,0,0-1-.1c-0.8.58-5.44,13.46-5.44,13.46s-1,2.14.37,2.21h10.37s0.55,0,.55-0.9v-6.24h6.8v6.24c0,0.94.55,0.9,0.55,0.9h10.37C6015.33,709.89,6014.3,707.75,6014.3,707.75Z" transform="translate(-5984.53 -678.81)" fill="#1879be"/><path d="M6006.69,686.86s-3.35-8-6.9-8.05l-0.19,0-0.19,0c-3.55.1-6.9,8.05-6.9,8.05a15.72,15.72,0,0,0-1.39,4.61s3.49,3.55,7.11,4.49a13.54,13.54,0,0,0,2.73,0c3.62-.94,7.11-4.49,7.11-4.49A15.73,15.73,0,0,0,6006.69,686.86ZM5999.6,693a3.12,3.12,0,1,1,3.13-3.12A3.12,3.12,0,0,1,5999.6,693Z" transform="translate(-5984.53 -678.81)" fill="#1879be"/><path d="M6016.44,709.26a5.1,5.1,0,0,0,2.57-.68,2.81,2.81,0,0,0,.63-2.19v-9.47a8.09,8.09,0,0,0-.39-3,1.42,1.42,0,0,0-1.42-.89,4,4,0,0,0-.56.05l-0.73.14v-0.69l2.45-.86,1.74-.63q1-.4,2.16-0.9a0.16,0.16,0,0,1,.18.11,1.91,1.91,0,0,1,0,.44v3.44a16.07,16.07,0,0,1,2.61-2.92,4,4,0,0,1,2.61-1,2.44,2.44,0,0,1,1.75.64,1.36,1.36,0,0,1,.68,1.2,3.31,3.31,0,0,1-.52,1.85,1.65,1.65,0,0,1-1.29.59,2.42,2.42,0,0,1-1.61-.73,2.28,2.28,0,0,0-1.27-.73,2.88,2.88,0,0,0-1.81,1.19,3.64,3.64,0,0,0-1.07,2.45v9.47a3.13,3.13,0,0,0,.84,2.51,4.23,4.23,0,0,0,2.8.66V710h-10.37v-0.69Z" transform="translate(-5984.53 -678.81)" fill="#1879be"/><path d="M6043,690.2v1.51h-4.29l0,12.09a8.06,8.06,0,0,0,.27,2.41,1.94,1.94,0,0,0,2,1.45,2.39,2.39,0,0,0,1.32-.36,6.91,6.91,0,0,0,1.27-1.13l0.55,0.46-0.46.63a6.73,6.73,0,0,1-2.31,2.08,5.27,5.27,0,0,1-2.36.61,3.32,3.32,0,0,1-3.37-2.2,9.1,9.1,0,0,1-.48-3.32V691.71h-2.29a0.61,0.61,0,0,1-.16-0.13,0.25,0.25,0,0,1-.05-0.17,0.5,0.5,0,0,1,.09-0.33,6.35,6.35,0,0,1,.6-0.54,18.1,18.1,0,0,0,2.09-1.94q0.64-.74,3-3.94a0.7,0.7,0,0,1,.33,0,0.52,0.52,0,0,1,.05.31v5.16H6043Z" transform="translate(-5984.53 -678.81)" fill="#1879be"/><path d="M6045.78,709.37a3.69,3.69,0,0,0,2.26-.85,5.07,5.07,0,0,0,.54-2.93V685.44a3.75,3.75,0,0,0-.31-1.73,1.57,1.57,0,0,0-1.48-.56,3.21,3.21,0,0,0-.45,0l-0.49.07V682.5l2.28-.66,1.88-.56,2-.63,0,0.15v12.89a13.77,13.77,0,0,1,2.36-2.22,7,7,0,0,1,4-1.26,4.62,4.62,0,0,1,4.65,2.85,9.85,9.85,0,0,1,.67,4v8.56a5.32,5.32,0,0,0,.52,2.9,3.12,3.12,0,0,0,2.11.88V710h-9.11v-0.59a3.93,3.93,0,0,0,2.36-.86,5.1,5.1,0,0,0,.53-2.92v-8.5a6.89,6.89,0,0,0-.68-3.3,2.66,2.66,0,0,0-2.58-1.26,5.17,5.17,0,0,0-3.18,1.18,4.06,4.06,0,0,0-1.54,1.53v10.35q0,2.35.55,2.94a4.1,4.1,0,0,0,2.34.84V710h-9.28v-0.59Z" transform="translate(-5984.53 -678.81)" fill="#1879be"/><path d="M6068.15,709.26a5.1,5.1,0,0,0,2.57-.68,2.81,2.81,0,0,0,.63-2.19v-9.47a8.09,8.09,0,0,0-.39-3,1.42,1.42,0,0,0-1.42-.89,4,4,0,0,0-.56.05l-0.73.14v-0.69l2.45-.86,1.74-.63q1-.4,2.16-0.9a0.16,0.16,0,0,1,.18.11,1.91,1.91,0,0,1,0,.44v3.44a16.07,16.07,0,0,1,2.61-2.92,4,4,0,0,1,2.61-1,2.44,2.44,0,0,1,1.75.64,2.27,2.27,0,0,1,.16,3.05,1.65,1.65,0,0,1-1.29.59,2.42,2.42,0,0,1-1.61-.73,2.28,2.28,0,0,0-1.27-.73,2.88,2.88,0,0,0-1.81,1.19,3.64,3.64,0,0,0-1.07,2.45v9.47a3.13,3.13,0,0,0,.84,2.51,4.23,4.23,0,0,0,2.8.66V710h-10.37v-0.69Z" transform="translate(-5984.53 -678.81)" fill="#1879be"/><path d="M6107.31,690.2v1.51H6103l0,12.09a8.06,8.06,0,0,0,.27,2.41,1.94,1.94,0,0,0,2,1.45,2.39,2.39,0,0,0,1.32-.36,6.91,6.91,0,0,0,1.27-1.13l0.55,0.46-0.46.63a6.73,6.73,0,0,1-2.31,2.08,5.27,5.27,0,0,1-2.36.61,3.32,3.32,0,0,1-3.37-2.2,9.1,9.1,0,0,1-.48-3.32V691.71h-2.29a0.61,0.61,0,0,1-.16-0.13,0.25,0.25,0,0,1-.05-0.17,0.5,0.5,0,0,1,.09-0.33,6.35,6.35,0,0,1,.6-0.54,18.1,18.1,0,0,0,2.09-1.94q0.64-.74,3-3.94a0.7,0.7,0,0,1,.33,0,0.52,0.52,0,0,1,.05.31v5.16h4.25Z" transform="translate(-5984.53 -678.81)" fill="#1879be"/><path d="M6084.23,709.36a5.37,5.37,0,0,0,2.84-.77c0.39-.37.59-0.4,0.59-2V695.18a6.36,6.36,0,0,0-.19-1.89,1.27,1.27,0,0,0-1.33-.86,2.44,2.44,0,0,0-.45,0q-0.22,0-1.27.34v-0.65l0.9-.29q3.68-1.2,5.13-1.81a2.74,2.74,0,0,1,.76-0.25,1.14,1.14,0,0,1,0,.31v16.43c0,1.6.19,1.62,0.58,2s1.91,0.28,3.27.39v1h-10.87v-0.59Zm3.35-27.09a2.09,2.09,0,0,1,1.56-.65,2.18,2.18,0,0,1,2.19,2.19,2.09,2.09,0,0,1-.64,1.54A2.19,2.19,0,0,1,6087.57,682.27Z" transform="translate(-5984.53 -678.81)" fill="#1879be"/><path d="M6110.13,709.36a5.37,5.37,0,0,0,2.84-.77c0.39-.37.59-0.4,0.59-2V695.18a6.36,6.36,0,0,0-.19-1.89,1.27,1.27,0,0,0-1.33-.86,2.44,2.44,0,0,0-.45,0q-0.22,0-1.27.34v-0.65l0.9-.29q3.68-1.2,5.13-1.81a2.74,2.74,0,0,1,.76-0.25,1.14,1.14,0,0,1,0,.31v16.43c0,1.6.19,1.62,0.58,2s1.91,0.28,3.27.39v1h-10.87v-0.59Zm3.35-27.09a2.09,2.09,0,0,1,1.56-.65,2.18,2.18,0,0,1,2.19,2.19,2.09,2.09,0,0,1-.64,1.54A2.19,2.19,0,0,1,6113.48,682.27Z" transform="translate(-5984.53 -678.81)" fill="#1879be"/><path d="M6122.84,702.94h0.69a11,11,0,0,0,1.3,3.67,4.76,4.76,0,0,0,4.3,2.35,3.45,3.45,0,0,0,2.49-.87,3,3,0,0,0,.91-2.26,3.1,3.1,0,0,0-.53-1.7,5.39,5.39,0,0,0-1.85-1.6l-2.36-1.34a13.44,13.44,0,0,1-3.81-2.79,4.9,4.9,0,0,1-1.22-3.32,5,5,0,0,1,1.68-3.86,6.09,6.09,0,0,1,4.23-1.51,8.24,8.24,0,0,1,2.45.42,11.31,11.31,0,0,0,1.5.42,1.07,1.07,0,0,0,.55-0.1,0.88,0.88,0,0,0,.29-0.34h0.5l0.15,5.86h-0.65a9.71,9.71,0,0,0-1.14-3.17,4.18,4.18,0,0,0-3.77-2.1,3,3,0,0,0-3.16,3q0,1.93,2.9,3.44l2.78,1.49q4.48,2.44,4.48,5.67a5.07,5.07,0,0,1-1.86,4.05,7.27,7.27,0,0,1-4.86,1.57,11.37,11.37,0,0,1-2.86-.42,12.91,12.91,0,0,0-1.89-.42,0.62,0.62,0,0,0-.44.18,1.23,1.23,0,0,0-.29.43h-0.55v-6.78Z" transform="translate(-5984.53 -678.81)" fill="#1879be"/><path d="M6081.42,720.65l-0.84,2.54h-1.08l2.76-8.07h1.25l2.76,8.07h-1.12l-0.86-2.54h-2.87Zm2.66-.81-0.8-2.32c-0.18-.53-0.3-1-0.42-1.47h0c-0.12.47-.24,1-0.41,1.46l-0.79,2.33h2.45Z" transform="translate(-5984.53 -678.81)" fill="#1879be"/><path d="M6088.3,715.12v4.79c0,1.8.8,2.56,1.88,2.56s2-.79,2-2.56v-4.79h1.06v4.72c0,2.48-1.31,3.48-3.06,3.48s-2.9-.93-2.9-3.45v-4.75h1.06Z" transform="translate(-5984.53 -678.81)" fill="#1879be"/><path d="M6094.46,721.92a3.55,3.55,0,0,0,1.86.53,1.45,1.45,0,0,0,1.69-1.38c0-.74-0.43-1.18-1.52-1.59-1.32-.48-2.14-1.17-2.14-2.3A2.33,2.33,0,0,1,6097,715a3.63,3.63,0,0,1,1.78.39l-0.29.85a3,3,0,0,0-1.52-.38,1.31,1.31,0,0,0-1.52,1.21c0,0.75.49,1.13,1.61,1.56,1.37,0.53,2.05,1.18,2.05,2.37s-0.91,2.33-2.82,2.33a4.18,4.18,0,0,1-2.06-.53Z" transform="translate(-5984.53 -678.81)" fill="#1879be"/><path d="M6102.51,716h-2.46v-0.89h6V716h-2.47v7.18h-1.06V716Z" transform="translate(-5984.53 -678.81)" fill="#1879be"/><path d="M6107,715.23a12.18,12.18,0,0,1,2-.17,3.35,3.35,0,0,1,2.34.66,2.06,2.06,0,0,1,.64,1.54,2.12,2.12,0,0,1-1.51,2v0a2,2,0,0,1,1.18,1.63,12.82,12.82,0,0,0,.62,2.21h-1.08a10.09,10.09,0,0,1-.53-1.93,1.58,1.58,0,0,0-1.63-1.57h-1v3.5h-1v-8Zm1,3.67h1.07a1.59,1.59,0,0,0,1.82-1.53c0-1-.76-1.5-1.86-1.5a4.59,4.59,0,0,0-1,.08v2.94Z" transform="translate(-5984.53 -678.81)" fill="#1879be"/><path d="M6115.19,720.65l-0.84,2.54h-1.08l2.76-8.07h1.25l2.76,8.07h-1.12l-0.86-2.54h-2.87Zm2.66-.81-0.8-2.32c-0.18-.53-0.3-1-0.42-1.47h0c-0.12.47-.24,1-0.41,1.46l-0.79,2.33h2.45Z" transform="translate(-5984.53 -678.81)" fill="#1879be"/><path d="M6121,715.12h1.06v7.19h3.46v0.87H6121v-8.07Z" transform="translate(-5984.53 -678.81)" fill="#1879be"/><path d="M6127.57,715.12v8.07h-1.06v-8.07h1.06Z" transform="translate(-5984.53 -678.81)" fill="#1879be"/><path d="M6130.47,720.65l-0.84,2.54h-1.08l2.76-8.07h1.25l2.76,8.07h-1.12l-0.86-2.54h-2.87Zm2.66-.81-0.8-2.32c-0.18-.53-0.3-1-0.42-1.47h0c-0.12.47-.24,1-0.41,1.46l-0.79,2.33h2.45Z" transform="translate(-5984.53 -678.81)" fill="#1879be"/></symbol><symbol id="icon_search" viewBox="0 0 22.4 22.35"><path d="M6771.22,709.29l-5.94-5.92a9.18,9.18,0,1,1,.85-13.74,9.14,9.14,0,0,1,.75,12.15l5.94,5.92Zm-11.6-6.22a6.95,6.95,0,1,0-4.93-2A6.93,6.93,0,0,0,6759.61,703.07Z" transform="translate(-6750.41 -686.94)" fill="#1879be"/></symbol><symbol id="icon_telephone" viewBox="0 0 14.67 14.63"><path d="M6192.21,693.34a0.51,0.51,0,0,0-.3,0c-1.1.43-1.79,2-1.95,3.06-0.51,3.49,2.25,6.51,4.79,8.5,2.25,1.77,6.58,4.67,9.13,1.87a2.1,2.1,0,0,0,.69-1.36,3,3,0,0,0-1.46-1.93c-0.47-.35-1.44-1.3-2-1.28a2.17,2.17,0,0,0-1.24.93l-0.61.61a6.56,6.56,0,0,1-1.54-.85,10.36,10.36,0,0,1-1.48-1.16,9.57,9.57,0,0,1-1.2-1.38,7.06,7.06,0,0,1-.85-1.48s0.71-.77.91-1.08a1.54,1.54,0,0,0,.26-1.93,4.54,4.54,0,0,0-.65-0.75,12.35,12.35,0,0,0-1.34-1.18A2.86,2.86,0,0,0,6192.21,693.34Z" transform="translate(-6189.9 -693.33)" fill="#184e7d"/></symbol></svg>