<svg xmlns="http://www.w3.org/2000/svg" width="25" height="43" viewBox="0 0 2500 4333" shape-rendering="geometricPrecision" image-rendering="optimizeQuality" fill-rule="evenodd" clip-rule="evenodd"><g fill="none" stroke="#fff" stroke-linejoin="round" stroke-linecap="round"><g stroke-width="101"><path d="m246 816l293 169"/><path d="m51 2384l293 169"/><path d="m51 3084l293 169"/><g fill-rule="nonzero"><path d="m1766 2094l292 169m-1519 2019l-293-169 1-607m80 46l-276-159v-309l195-113v-96m97 56l-292-169v-378l195-113v-1455l894-516c256-148 450-230 581-245 62-9 118-4 168 15m-964 1810l190-110c86-50 170-106 249-168 79-61 148-130 208-206 59-76 106-160 141-252 35-92 53-194 53-306 0-49-4-93-13-130"/><path d="m918 2599v323l1141-659v309l-1141 658v834l-379 218v-833l-196 113v-309l196-113v-322l-196 113v-378l196-113v-1455l894-516c256-148 449-230 580-245 133-18 238 25 318 129 78 105 118 248 118 429 0 182-29 351-88 505-58 153-135 294-232 420-97 127-207 241-332 342-126 101-255 190-389 267l-490 283zm490-660c86-50 169-106 248-168 80-61 148-129 208-206 60-76 107-160 142-252 35-91 53-194 53-306 0-97-17-171-48-220-32-49-76-79-130-90-55-11-120-5-193 18-74 23-154 59-240 109l-530 306v1092l490-283z"/></g></g><path stroke-width="91" d="m1889 70l193 111 106 61"/></g></svg>