<svg xmlns="http://www.w3.org/2000/svg" width="9" height="9" viewBox="0 0 254 254" shape-rendering="geometricPrecision" image-rendering="optimizeQuality" fill-rule="evenodd" clip-rule="evenodd"><g><path d="m0 0h46.18v46.18h-46.18z"/><path d="m0 69h46.18v46.18h-46.18z"/><path d="m0 139h46.18v46.18h-46.18z"/><path d="m0 208h46.18v46.18h-46.18z"/><path d="m69 0h46.18v46.18h-46.18z"/><path d="m69 69h46.18v46.18h-46.18z"/><path d="m69 139h46.18v46.18h-46.18z"/><path d="m69 208h46.18v46.18h-46.18z"/><path d="m139 0h46.18v46.18h-46.18z"/><path d="m208 0h46.18v46.18h-46.18z"/><path d="m139 69h46.18v46.18h-46.18z"/><path d="m208 69h46.18v46.18h-46.18z"/><path d="m139 139h46.18v46.18h-46.18z"/><path d="m139 208h46.18v46.18h-46.18z"/><path d="m208 139h46.18v46.18h-46.18z"/><path d="m208 208h46.18v46.18h-46.18z"/></g></svg>