<svg xmlns="http://www.w3.org/2000/svg" width="9" height="9" viewBox="0 0 254 254" shape-rendering="geometricPrecision" image-rendering="optimizeQuality" fill-rule="evenodd" clip-rule="evenodd"><path d="m110 188c22 0 41-9 56-23 14-14 23-34 23-56 0-22-9-41-23-56-14-14-34-23-56-23-22 0-41 9-56 23-14 14-23 34-23 56 0 22 9 41 23 56 14 14 34 23 56 23m139 34c7 7 7 19 0 26-7 7-19 7-26 0l-49-49c-18 13-40 20-64 20-30 0-58-12-78-32-20-20-32-47-32-78 0-30 12-58 32-78 20-20 47-32 78-32 30 0 58 12 78 32 20 20 32 47 32 78 0 24-8 46-20 64l49 49" fill="#2644bc" fill-rule="nonzero"/></svg>