<svg xmlns="http://www.w3.org/2000/svg" width="9" height="9" viewBox="0 0 254 254" shape-rendering="geometricPrecision" image-rendering="optimizeQuality" fill-rule="evenodd" clip-rule="evenodd"><g fill="#a2aebf" fill-rule="nonzero"><path d="m11 127c0 58 47 106 106 106v-21c-11 0-22-2-32-6v-36h32v-21h-32v-42h32v-21h-32v-36c10-4 21-6 32-6v-21c-58 0-106 47-106 106zm53 66c-8-7-15-15-20-24h20v24m0-45h-29c-2-7-3-14-3-21 0-7 1-14 3-21h29v42m0-87v24h-20c5-9 12-17 20-24"/><path d="m212 53c0-18-14-32-32-32-18 0-32 14-32 32 0 18 14 32 32 32 18 0 32-14 32-32m-32 11c-6 0-11-5-11-11 0-6 5-11 11-11 6 0 11 5 11 11 0 6-5 11-11 11"/><path d="m180 85c-29 0-53 24-53 53v32c0 6 5 11 11 11h11v42c0 6 5 11 11 11h42c6 0 11-5 11-11v-42h11c6 0 11-5 11-11v-32c0-29-24-53-53-53zm32 74h-11c-6 0-11 5-11 11v42h-21v-42c0-6-5-11-11-11h-11v-21c0-18 14-32 32-32 18 0 32 14 32 32v21z"/></g></svg>