<svg xmlns="http://www.w3.org/2000/svg" width="67" height="67" viewBox="0 0 67000 67000" shape-rendering="geometricPrecision" image-rendering="optimizeQuality" fill-rule="evenodd" clip-rule="evenodd"><g fill="#fff" stroke="#6e7078" stroke-width="3350"><path d="m22710 39490h23550c3790 0 6890-3100 6890-6880v-17450c0-3790-3100-6890-6890-6890h-36020c-3790 0-6890 3100-6890 6890v17450c0 3780 3100 6880 6890 6880v8790c10 2070 1230 2620 2840 1020l9630-9810z"/><path d="m49540 50900h-17180c-2770 0-5030-2260-5030-5030v-12710c0-2770 2260-5030 5030-5030h26270c2760 0 5030 2260 5030 5030v12710c0 2770-2270 5030-5030 5030v6410c-10 1510-900 1910-2070 750l-7020-7160z"/></g></svg>