<svg xmlns="http://www.w3.org/2000/svg" width="9" height="9" viewBox="0 0 254 254" shape-rendering="geometricPrecision" image-rendering="optimizeQuality" fill-rule="evenodd" clip-rule="evenodd"><g fill="#a2aebf" fill-rule="nonzero"><path d="m127 218c25-31 64-83 64-122 0-35-28-63-64-63-35 0-64 28-64 63 0 40 38 92 64 122m0-165c23 0 42 19 42 42 0 27-26 67-42 89-17-22-42-62-42-89 0-23 19-42 42-42"/><path d="m148 95c0-12-10-21-21-21-12 0-21 10-21 21 0 12 9 21 21 21 12 0 21-10 21-21"/><path d="m85 243h84v-21h-84z"/></g></svg>